<svg width="42" height="40" viewBox="0 0 42 40" fill="none" xmlns="http://www.w3.org/2000/svg">
<path d="M18.2456 26.3729L16.0849 26.9795C16.282 27.5299 16.4269 28.5142 16.4269 29.8198V36.2959H18.8411V29.4422C19.2918 28.8918 19.7786 28.6267 20.3178 28.6267C20.5874 28.6267 20.7845 28.6829 21.0219 28.8155L21.6899 26.5818C21.3116 26.4131 21.1507 26.3729 20.7886 26.3729C20.519 26.3729 20.1931 26.4291 19.9959 26.5255C19.5452 26.7545 18.9699 27.2648 18.6278 27.7549C18.5876 27.2085 18.4629 26.7706 18.2456 26.3729ZM9.86025 23.175H9.59871V36.2999H12.1216V30.4827H15.3123V28.3254H12.1216V25.3123H16.105L16.2579 24.1673C13.8638 23.9865 11.691 23.6009 9.86025 23.175ZM3.94946 38.0395L5.12035 39.4014C6.25503 38.9474 7.67941 37.923 8.04155 36.316C8.16628 35.7857 8.22261 35.4442 8.22261 33.7408V23.2031H5.66355V34.0221C5.66355 35.4402 5.61124 35.9705 5.41006 36.4446C5.17266 36.9789 4.59728 37.6217 3.94946 38.0395ZM26.9287 31.3947C26.9287 33.6886 26.478 34.6689 25.4319 34.6689C24.9651 34.6689 24.4219 34.4037 24.2047 33.8734C24.0075 33.3833 23.8989 32.5477 23.8989 31.4308C23.8989 30.4666 23.9874 29.7837 24.1524 29.2735C24.3495 28.6668 24.8203 28.2892 25.3957 28.2892C25.8262 28.2892 26.2044 28.478 26.4418 28.7994C26.7678 29.2333 26.9287 30.085 26.9287 31.3947ZM28.4054 35.163C29.1981 34.2149 29.5602 33.078 29.5602 31.4148C29.5602 29.8439 29.2343 28.7833 28.4979 27.8714C27.7053 26.8871 26.6792 26.4131 25.3635 26.4131C22.8769 26.4131 21.2191 28.4378 21.2191 31.4871C21.2191 34.5363 22.8608 36.5048 25.3635 36.5048C26.7838 36.5048 27.7012 35.9946 28.4054 35.163ZM35.3261 29.7274C35.3261 30.6193 34.803 31.1094 33.8494 31.1094C33.0004 31.1094 32.425 30.7117 32.425 29.7274C32.425 28.8195 32.9481 28.2892 33.8655 28.2892C34.7829 28.2892 35.3261 28.8155 35.3261 29.7274ZM39.5952 27.6625L38.5853 26.0515C38.026 26.5818 37.342 26.8831 36.6741 26.8831C36.3683 26.8831 36.2073 26.8469 35.5394 26.6742C34.8714 26.4854 34.4047 26.4291 33.8816 26.4291C31.5197 26.4291 29.9907 27.7147 29.9907 29.7033C29.9907 31.1416 30.6385 32.0334 31.9744 32.391C31.4352 32.5236 30.8397 32.8088 30.5701 33.1302C30.373 33.3592 30.2845 33.6605 30.2845 34.018C30.2845 34.3234 30.3569 34.5885 30.4655 34.8135C30.5903 35.0224 30.7713 35.1911 30.9886 35.2875C31.4191 35.4563 32.1233 35.5728 33.2056 35.5889C33.7649 35.5889 34.1069 35.6089 34.2317 35.6089C34.8996 35.6451 35.2416 35.7616 35.4911 35.8942C35.7446 36.0428 35.9257 36.3843 35.9257 36.766C35.9257 37.1436 35.6923 37.5253 35.3503 37.7502C35.0243 37.9752 34.5013 38.0716 33.8172 38.0716C32.6987 38.0716 32.0871 37.6538 32.0871 36.8784C32.0871 36.537 32.1233 36.4606 32.1957 36.2517H29.9626C29.874 36.4405 29.7453 36.7057 29.7453 37.236C29.7453 37.8989 29.9988 38.4653 30.5017 38.9595C31.3306 39.775 32.6826 40 33.9983 40C35.4388 40 36.827 39.6585 37.6397 38.7506C38.1427 38.1841 38.3801 37.5574 38.3801 36.7419C38.3801 35.8701 38.1266 35.2072 37.5874 34.6769C36.9396 34.0502 36.1993 33.8252 34.795 33.8051L33.4953 33.785C33.2419 33.785 33.101 33.6926 33.101 33.5601C33.101 33.2949 33.443 33.0659 34.0546 32.7646C34.2357 32.7847 34.3081 32.7847 34.4127 32.7847C36.3763 32.7847 37.8208 31.5714 37.8208 29.9042C37.8208 29.2614 37.6397 28.7673 37.2816 28.3133C37.5874 28.3495 37.68 28.3695 37.9133 28.3695C38.5692 28.3816 39.0722 28.1727 39.5952 27.6625Z" fill="#40BE46"/>
<path d="M10.17 2.21615C10.3551 1.98314 10.3712 1.67782 10.1258 1.33232C9.97286 1.11538 9.25664 0.966735 8.95084 1.27608C8.64504 1.5814 8.92267 2.06349 9.16007 2.13982C9.60268 2.2724 9.79984 2.68218 10.17 2.21615ZM25.2508 1.47695C25.2628 1.04708 25.0697 0.777917 24.6432 0.793986C24.2207 0.810056 24.0678 1.02298 24.0799 1.43677C24.1845 2.22017 24.3173 2.20008 24.5989 2.2724C24.8846 2.34873 25.2387 1.90681 25.2508 1.47695ZM36.4326 3.93159C34.972 4.61857 36.0463 5.65507 32.2842 8.33871C30.4453 9.64839 30.1114 8.47128 29.9786 7.61959C29.8458 6.76789 29.6849 6.71969 29.375 7.06117C29.0692 7.40265 28.0271 8.02133 26.7194 7.71199C25.4077 7.39863 25.0375 4.98416 24.9772 3.99185C24.9168 2.99955 24.3334 3.14418 24.2288 3.74277C23.5809 7.4147 21.4766 6.11707 19.0945 6.41436C16.6119 6.72772 14.6162 8.89713 11.5783 3.6785C10.7655 2.28445 9.89641 4.10033 10.5281 4.79534C11.1598 5.49035 11.7352 5.27743 12.214 6.03271C12.6888 6.78798 13.0309 8.16998 12.1859 8.99355C12.4957 9.50778 13.2843 10.7893 14.0368 11.1188C16.117 9.42743 18.3622 9.17433 21.5772 10.5001C22.9734 11.0746 23.5447 9.08595 25.3312 9.33904C29.9665 9.9979 29.0853 11.7415 31.9703 9.92559C33.6844 8.8449 33.9701 7.14553 36.6861 5.77559C38.5772 4.81543 37.2655 3.53789 36.4326 3.93159ZM39.7843 1.36446C39.5067 0.958701 38.9192 1.03101 38.3358 1.45686C37.7523 1.87869 37.865 2.67816 38.0581 2.86698C38.3961 3.19641 39.2974 2.97143 39.5067 2.73842C40.0458 2.13179 40.066 1.77022 39.7843 1.36446Z" fill="#40BE46"/>
<path d="M2.20721 2.4371C2.40839 2.22016 2.65786 1.80636 2.22732 1.01493C1.91348 0.436421 0.871345 0.199393 0.50519 0.420352C0.139035 0.64131 -0.311617 1.49702 0.304006 1.87064C1.09265 2.35675 1.6117 3.09194 2.20721 2.4371ZM8.51231 4.83952C8.35941 4.62258 7.90071 4.52616 7.59491 4.83148C7.28911 5.13681 7.44201 5.44213 7.61503 5.62291C7.86852 5.88405 8.29503 5.86396 8.55255 5.71933C8.81007 5.57872 8.75776 5.181 8.51231 4.83952ZM34.9559 8.15791C32.6987 11.3035 32.7872 10.5443 30.5661 11.6892C24.4702 14.8228 25.4882 10.476 23.0016 12.1552C19.0825 14.8027 16.962 14.4251 14.3064 12.6976C14.3064 12.6976 11.6548 10.0903 10.4517 7.50709C9.88036 6.27775 9.91658 9.52785 6.29527 5.91217C4.5007 4.11638 5.31349 3.95167 4.42425 3.337C3.53502 2.72233 2.13076 3.6825 3.31372 4.58642C12.3911 11.5044 11.3047 14.642 14.4754 16.6186C18.5232 19.1456 27.9225 18.4023 30.9765 16.4338C32.409 15.5098 32.0468 13.9751 32.8797 11.9021C33.4672 10.5001 34.8433 9.61222 35.6561 9.48366C37.688 9.15825 35.8935 6.85225 34.9559 8.15791ZM38.7623 6.91251C38.4847 6.57906 38.1025 6.57906 37.8047 6.85225C37.515 7.23792 37.507 7.5111 37.7122 7.72001C37.9335 7.949 38.3881 8.14184 38.7141 7.88071C39.04 7.62359 39.04 7.24595 38.7623 6.91251Z" fill="#40BE46"/>
<path d="M9.2245 11.7776C6.20674 12.5128 4.15063 13.9591 4.15063 15.6183C4.15063 16.6467 4.93928 17.5868 6.251 18.3341C5.85668 17.7033 5.64342 17.0404 5.64342 16.3535C5.64342 14.626 6.98331 13.0391 9.2245 11.7776ZM37.515 16.5664C37.515 15.4254 36.5332 14.3648 34.8634 13.489C35.2537 13.9631 35.4669 14.4693 35.4669 14.9916C35.4669 17.7555 29.5682 19.9973 22.2974 19.9973C15.0226 19.9973 9.1239 17.7555 9.1239 14.9916C9.1239 14.642 9.22047 14.2965 9.40154 13.9671C8.23467 14.7385 7.56674 15.6263 7.56674 16.5664C7.56674 19.5594 14.2702 21.9859 22.5389 21.9859C30.8115 21.9859 37.515 19.5594 37.515 16.5664ZM41.08 18.2658C41.08 17.177 40.408 16.1687 39.2653 15.3371C39.3699 15.6705 39.4262 16.008 39.4262 16.3535C39.4262 19.471 35.0646 22.1385 28.8842 23.2433C29.5843 23.3237 30.3086 23.3639 31.057 23.3639C36.5896 23.3679 41.08 21.082 41.08 18.2658Z" fill="#40BE46"/>
</svg>
