<svg width="431" height="369" viewBox="0 0 431 369" fill="none" xmlns="http://www.w3.org/2000/svg">
<path d="M102.043 278.523L55.7724 289.403L58.2666 347.185L103.101 333.816L102.043 278.523Z" fill="#B9B9BB"/>
<path d="M20.3323 281.479L55.7739 289.404L58.2682 347.186L23.4851 333.893L20.3323 281.479Z" fill="#ACADB1"/>
<path d="M20.3313 281.478L55.773 289.403L102.044 278.523L63.6147 271.925L20.3313 281.478Z" fill="#F4F4F4"/>
<rect x="74.5916" y="3.68246" width="356.408" height="356.408" rx="20" fill="#ACADB1"/>
<rect x="82.8085" y="11.8994" width="339.975" height="339.975" rx="20" fill="#F4F4F4"/>
<rect x="104.378" y="34.4959" width="295.809" height="295.809" rx="20" fill="url(#paint0_linear_1201_131)"/>
<rect x="128.001" y="180.346" width="253.697" height="121.199" fill="url(#paint1_linear_1201_131)"/>
<g clip-path="url(#clip0_1201_131)">
<path d="M152.678 125.034L273.187 67.0795L272.009 175.132L151.5 233.101L152.678 125.034Z" fill="#2C783B"/>
<path d="M273.187 67.0795L357.241 151.661L356.063 259.714L272.009 175.132L273.187 67.0795Z" fill="#236030"/>
<path d="M236.732 209.616L235.554 317.682L151.5 233.101L152.678 125.034L236.732 209.616Z" fill="#3AA548"/>
<path d="M341.171 57.8513H334.187L327.813 54.9514C320.701 84.2358 315.065 107.306 310.622 125.42L331.177 111.877C333.96 96.721 337.267 78.8504 341.157 57.837L341.171 57.8513Z" fill="#F8B736"/>
<path d="M299.492 197.088L299.961 197.202L308.393 199.031L308.847 199.131C313.12 199.888 315.051 197.902 316.868 189.403C318.316 182.646 321.95 162.147 331.177 111.906L310.622 125.448C301.465 162.761 297.42 179.003 296.142 184.917C294.325 193.402 295.262 196.031 299.478 197.088H299.492Z" fill="#F8B736"/>
<path d="M369.577 52.9515L362.99 51.523C362.366 51.3802 361.741 51.7944 361.613 52.423L361.457 53.1515C356.588 56.4799 348.894 51.9087 348.042 49.6374C347.573 48.1946 346.367 47.0232 344.777 46.6804L329.105 43.2805C328.75 43.2091 328.381 43.1805 328.04 43.1805C321.425 42.3377 312.353 43.5091 300.613 57.5799C298.044 60.7226 301.096 60.8512 303.921 58.8084C306.732 56.7656 323.54 48.2089 322.092 54.9515L321.425 58.0656C320.914 60.4655 322.433 62.8225 324.817 63.3368L340.49 66.7366C342.747 67.2223 344.961 65.8795 345.629 63.7082C348.326 62.3368 355.807 61.994 358.589 66.5366L358.49 67.008C358.348 67.6366 358.76 68.2651 359.384 68.3937L365.971 69.8222C366.596 69.9651 367.221 69.5508 367.348 68.9222L370.471 54.3229C370.613 53.6944 370.202 53.0658 369.577 52.9373V52.9515Z" fill="#999999"/>
<path d="M243.276 179.089C242.751 185.431 237.215 190.16 230.912 189.631C224.609 189.103 219.91 183.531 220.435 177.189L230.727 52.4373C231.252 46.0947 236.789 41.3664 243.092 41.8949C249.395 42.4234 254.094 47.9946 253.568 54.3372L243.276 179.089Z" fill="#AEAEAE"/>
<path d="M227.774 0.682467L225.759 25.1099C225.759 25.1099 225.191 31.6382 232.388 32.2382L271.64 35.5095C271.64 35.5095 254.477 43.2234 252.788 63.7939L229.946 61.8797C229.946 61.8797 227.391 45.7804 222.082 42.7091C216.773 39.6379 193.704 22.4529 227.774 0.668182V0.682467Z" fill="#AEAEAE"/>
<path d="M243.816 33.1953L246.144 4.98227C246.144 4.98227 262.285 20.7387 261.135 34.6381L243.816 33.1953Z" fill="#525252"/>
<path d="M236.198 41.4772L235.485 50.1329C235.417 50.9505 236.021 51.6684 236.834 51.7362L249.793 52.8175C250.605 52.8853 251.319 52.2774 251.386 51.4597L252.099 42.804C252.167 41.9864 251.563 41.2685 250.75 41.2007L237.791 40.1194C236.979 40.0516 236.265 40.6595 236.198 41.4772Z" fill="#525252"/>
<path d="M237.726 49.9517C237.697 50.2945 237.399 50.5517 237.059 50.5231C236.718 50.4945 236.462 50.1945 236.491 49.8517L237.144 41.9378C237.172 41.5949 237.47 41.3378 237.811 41.3663C238.152 41.3949 238.407 41.6949 238.379 42.0378L237.726 49.9517Z" fill="#AEAEAE"/>
<path d="M239.515 50.0945C239.486 50.4374 239.188 50.6945 238.847 50.6659C238.507 50.6374 238.251 50.3374 238.279 49.9945L238.933 42.0806C238.961 41.7378 239.259 41.4806 239.6 41.5092C239.94 41.5378 240.196 41.8378 240.168 42.1806L239.515 50.0945Z" fill="#AEAEAE"/>
<path d="M241.289 50.2517C241.261 50.5945 240.962 50.8516 240.622 50.8231C240.281 50.7945 240.026 50.4945 240.054 50.1517L240.707 42.2377C240.735 41.8949 241.033 41.6378 241.374 41.6663C241.715 41.6949 241.97 41.9949 241.942 42.3377L241.289 50.2517Z" fill="#AEAEAE"/>
<path d="M243.063 50.3945C243.035 50.7374 242.737 50.9945 242.396 50.9659C242.055 50.9374 241.8 50.6374 241.828 50.2945L242.481 42.3806C242.51 42.0378 242.808 41.7806 243.149 41.8092C243.489 41.8378 243.745 42.1377 243.716 42.4806L243.063 50.3945Z" fill="#AEAEAE"/>
<path d="M244.852 50.5516C244.824 50.8945 244.526 51.1516 244.185 51.123C243.844 51.0945 243.589 50.7945 243.617 50.4516L244.27 42.5377C244.299 42.1949 244.597 41.9377 244.937 41.9663C245.278 41.9949 245.534 42.2949 245.505 42.6377L244.852 50.5516Z" fill="#AEAEAE"/>
<path d="M246.627 50.6945C246.598 51.0373 246.3 51.2945 245.959 51.2659C245.619 51.2373 245.363 50.9373 245.392 50.5945L246.045 42.6806C246.073 42.3377 246.371 42.0806 246.712 42.1092C247.052 42.1377 247.308 42.4377 247.28 42.7806L246.627 50.6945Z" fill="#AEAEAE"/>
<path d="M248.415 50.8516C248.387 51.1945 248.089 51.4516 247.748 51.423C247.407 51.3945 247.152 51.0945 247.18 50.7516L247.833 42.8377C247.862 42.4949 248.16 42.2377 248.5 42.2663C248.841 42.2949 249.097 42.5949 249.068 42.9377L248.415 50.8516Z" fill="#AEAEAE"/>
<path d="M250.19 50.9945C250.161 51.3373 249.863 51.5945 249.523 51.5659C249.182 51.5373 248.926 51.2373 248.955 50.8945L249.608 42.9806C249.636 42.6377 249.934 42.3806 250.275 42.4092C250.616 42.4377 250.871 42.7377 250.843 43.0806L250.19 50.9945Z" fill="#AEAEAE"/>
<path d="M239.33 177.546C238.989 181.689 235.369 184.774 231.253 184.431C227.136 184.089 224.069 180.446 224.41 176.303L232.672 76.0362C233.013 71.8935 236.633 68.808 240.75 69.1508C244.866 69.4936 247.933 73.1363 247.592 77.279L239.33 177.546Z" fill="#D3D3D3"/>
<path d="M237.513 177.332C237.257 180.474 234.517 182.803 231.394 182.546C228.271 182.289 225.957 179.532 226.213 176.389C226.468 173.246 229.208 170.918 232.331 171.175C235.454 171.432 237.768 174.189 237.513 177.332Z" fill="white"/>
<path d="M272.045 111.488L268.996 117.748L274.707 120.564L277.755 114.305L272.045 111.488Z" fill="#A2A2A1"/>
<path d="M283.455 112.189L277.149 113.021L278.05 119.933L284.356 119.101L283.455 112.189Z" fill="#A2A2A1"/>
<path d="M278.411 102.135L279.661 94.4639C279.76 93.8211 280.342 93.364 280.981 93.4069L282.216 85.8358L280.981 85.6358L274.039 96.421L272.037 108.72L278.312 109.763L279.32 103.549C278.695 103.392 278.298 102.778 278.397 102.121L278.411 102.135Z" fill="#A2A2A1"/>
<path d="M280.654 102.506L281.904 94.8354C282.003 94.1925 281.605 93.5783 280.981 93.4211L282.216 85.8501L283.451 86.05L286.602 98.5066L284.601 110.806L278.326 109.763L279.334 103.549C279.973 103.592 280.555 103.149 280.654 102.492V102.506Z" fill="#C4C4C4"/>
<path d="M284.558 111.035C283.99 114.52 280.711 116.892 277.247 116.32C273.784 115.749 271.427 112.449 271.995 108.963C272.563 105.478 275.842 103.106 279.306 103.678C282.77 104.249 285.126 107.549 284.558 111.035Z" fill="#C4C4C4"/>
<path d="M274.422 125.12C264.769 141.248 262.157 150.904 264.102 165.832C264.826 171.289 263.719 180.831 257.998 175.717C252.262 170.603 253.654 146.604 259.744 135.334C265.848 124.063 262.64 121.091 262.043 119.834C261.447 118.577 261.433 117.191 264.585 117.706C267.168 118.134 269.212 116.149 270.05 114.549C274.706 117.063 276.339 118.363 276.339 118.363L274.436 125.12H274.422Z" fill="#F8B736"/>
<path d="M276.864 125.52C280.881 143.919 280.299 153.904 273.712 167.404C271.299 172.332 269.297 181.746 276.353 178.732C283.408 175.732 289.725 152.547 287.525 139.905C285.325 127.262 289.299 125.477 290.279 124.477C291.244 123.477 291.699 122.163 288.547 121.648C285.963 121.22 284.657 118.691 284.374 116.906C279.164 117.777 277.205 118.506 277.205 118.506L276.864 125.52Z" fill="#F8B736"/>
<path d="M281.08 110.449C280.825 112.006 279.363 113.063 277.815 112.806C276.268 112.549 275.217 111.077 275.473 109.52C275.728 107.963 277.191 106.906 278.738 107.163C280.285 107.421 281.336 108.892 281.08 110.449Z" fill="#A2A2A1"/>
<path d="M202.404 82.8418L190.182 84.1757L196.233 140.315L208.455 138.981L202.404 82.8418Z" fill="#C4C4C4"/>
<path d="M188.75 70.965L189.957 82.1502L199.44 81.1074L197.608 64.1225L188.75 70.965Z" fill="#C4C4C4"/>
<path d="M199.44 81.1074L202.179 80.8074L200.178 62.1368L197.608 64.1224L199.44 81.1074Z" fill="#EAEAEA"/>
<path d="M200.107 68.6794L190.553 75.8934L190.312 75.5791L199.865 68.3651L200.107 68.6794Z" fill="#E2E2E2"/>
<path d="M200.802 75.1077L191.234 82.3216L191.007 82.0074L200.561 74.7934L200.802 75.1077Z" fill="#E2E2E2"/>
<path d="M201.484 81.5359L191.93 88.7499L191.703 88.4356L201.257 81.2217L201.484 81.5359Z" fill="#E2E2E2"/>
<path d="M202.179 87.9642L192.626 95.1782L192.398 94.8639L201.952 87.65L202.179 87.9642Z" fill="#E2E2E2"/>
<path d="M202.875 94.3925L193.321 101.606L193.08 101.292L202.648 94.0782L202.875 94.3925Z" fill="#E2E2E2"/>
<path d="M203.571 100.821L194.017 108.035L193.775 107.72L203.329 100.521L203.571 100.821Z" fill="#E2E2E2"/>
<path d="M204.266 107.263L194.698 114.463L194.471 114.149L204.025 106.949L204.266 107.263Z" fill="#E2E2E2"/>
<path d="M204.947 113.692L195.394 120.891L195.167 120.591L204.72 113.377L204.947 113.692Z" fill="#E2E2E2"/>
<path d="M205.643 120.12L196.089 127.334L195.862 127.02L205.416 119.806L205.643 120.12Z" fill="#E2E2E2"/>
<path d="M206.339 126.548L196.785 133.762L196.544 133.448L206.112 126.234L206.339 126.548Z" fill="#E2E2E2"/>
<path d="M207.034 132.976L197.481 140.19L197.239 139.876L206.793 132.662L207.034 132.976Z" fill="#E2E2E2"/>
<path d="M192.924 151.376L220.762 148.333C219.924 140.59 213.025 135.005 205.331 135.848C197.637 136.691 192.086 143.633 192.924 151.376Z" fill="#F8B736"/>
<path d="M208.355 163.861C216.034 163.018 221.599 156.075 220.762 148.333L192.924 151.376C193.761 159.104 200.66 164.704 208.355 163.861Z" fill="#646464"/>
<path d="M185.584 83.2787L192.455 147.09C192.711 149.447 194.826 151.161 197.168 150.904L208.766 149.633C211.109 149.376 212.812 147.247 212.557 144.89L205.686 81.0788C205.43 78.7218 203.315 77.0076 200.973 77.2647L189.375 78.5361C187.018 78.7932 185.329 80.9217 185.584 83.2787ZM198.247 84.5787C198.886 84.5072 199.468 84.9787 199.539 85.6215L204.877 135.105C204.948 135.748 204.479 136.333 203.84 136.405L199.056 136.933C198.417 137.005 197.835 136.533 197.764 135.891L192.427 86.4072C192.356 85.7643 192.824 85.1786 193.463 85.1072L198.247 84.5787Z" fill="#F8B736"/>
<path d="M205.306 120.626L194.284 121.829C193.645 121.899 193.183 122.476 193.252 123.12L194.197 131.882C194.266 132.525 194.84 132.99 195.479 132.92L206.502 131.717C207.141 131.648 207.603 131.07 207.534 130.427L206.589 121.664C206.52 121.021 205.945 120.556 205.306 120.626Z" fill="#646464"/>
<path d="M152.678 125.034L357.241 151.661L236.732 209.616L152.678 125.034Z" fill="#5DBB5A"/>
<path d="M357.241 151.661L356.063 259.714L235.554 317.682L236.732 209.616L357.241 151.661Z" fill="#309044"/>
<path d="M319.878 194.231C322.972 192.945 326.124 191.174 329.304 188.931L328.083 225.015C327.898 230.472 326.223 236.429 323.114 242.686C320.389 248.143 316.57 253.914 311.743 259.814C306.519 266.213 301.167 271.413 297.902 274.427C294.751 274.084 289.612 273.213 284.672 271.042C280.115 269.027 276.58 266.313 274.153 262.985C271.384 259.171 270.064 254.457 270.249 249L271.47 212.916C274.593 212.544 277.716 211.716 280.81 210.43C288.59 207.202 295.489 201.431 300.543 196.331C305.383 197.316 312.084 197.445 319.863 194.231H319.878ZM324.463 226.515L325.527 195.302C323.583 196.431 321.652 197.388 319.75 198.174C313.22 200.873 306.718 201.759 300.401 200.816C293.828 207.116 287.213 211.673 280.683 214.373C278.78 215.159 276.864 215.801 274.933 216.273L273.869 247.486C273.712 252.185 274.848 256.257 277.261 259.585C279.476 262.628 282.755 265.113 286.986 266.97C290.904 268.699 294.95 269.57 298.044 269.999C301.253 266.956 305.469 262.656 309.614 257.585C314.1 252.114 317.635 246.786 320.119 241.8C322.844 236.343 324.292 231.186 324.463 226.487" fill="#D3D3D3"/>
<path d="M300.259 205.216C306.576 205.873 313.078 204.83 319.622 202.116C320.332 201.831 321.042 201.502 321.766 201.173L320.857 228.015C320.729 231.958 319.48 236.315 317.166 240.972C314.923 245.471 311.672 250.343 307.527 255.414C304.219 259.471 300.841 262.985 298.215 265.571C295.688 265.128 292.465 264.342 289.342 262.956C285.424 261.228 282.429 258.957 280.427 256.214C278.369 253.371 277.389 249.928 277.517 246L278.425 219.158C279.135 218.901 279.859 218.615 280.555 218.33C287.085 215.616 293.714 211.216 300.259 205.23V205.216Z" fill="#D3D3D3"/>
</g>
<defs>
<linearGradient id="paint0_linear_1201_131" x1="227.413" y1="62.8551" x2="252.282" y2="330.305" gradientUnits="userSpaceOnUse">
<stop stop-color="#274A2B"/>
<stop offset="1" stop-color="#050406"/>
</linearGradient>
<linearGradient id="paint1_linear_1201_131" x1="254.85" y1="180.346" x2="254.85" y2="301.545" gradientUnits="userSpaceOnUse">
<stop stop-color="#203622"/>
<stop offset="1" stop-color="#101010" stop-opacity="0"/>
</linearGradient>
<clipPath id="clip0_1201_131">
<rect width="219" height="317" fill="white" transform="translate(151.5 0.682465)"/>
</clipPath>
</defs>
</svg>
