<svg width="33" height="33" viewBox="0 0 33 33" fill="none" xmlns="http://www.w3.org/2000/svg">
<path fill-rule="evenodd" clip-rule="evenodd" d="M5.46867 9.35599C4.9786 9.35599 4.5813 9.74056 4.5813 10.2151C4.5813 10.6896 4.97852 11.0742 5.46867 11.0742C5.95873 11.0742 6.35604 10.6896 6.35604 10.2151C6.35604 9.74065 5.95873 9.35599 5.46867 9.35599ZM7.72635 10.5068C7.23628 10.5068 6.83898 10.8914 6.83898 11.366C6.83898 11.8404 7.2362 12.2251 7.72635 12.2251C8.21641 12.2251 8.61372 11.8404 8.61372 11.366C8.61372 10.8915 8.21641 10.5068 7.72635 10.5068ZM9.98402 11.6577C9.49396 11.6577 9.09665 12.0423 9.09665 12.5168C9.09665 12.9913 9.49388 13.3759 9.98402 13.3759C10.4741 13.3759 10.8714 12.9913 10.8714 12.5168C10.8714 12.0423 10.4741 11.6577 9.98402 11.6577ZM12.2417 12.8085C11.7516 12.8085 11.3543 13.1931 11.3543 13.6676C11.3543 14.1421 11.7516 14.5268 12.2417 14.5268C12.7318 14.5268 13.1291 14.1421 13.1291 13.6676C13.1291 13.1932 12.7318 12.8085 12.2417 12.8085V12.8085ZM14.4994 13.9594C14.0093 13.9594 13.612 14.3439 13.612 14.8185C13.612 15.2929 14.0092 15.6776 14.4994 15.6776C14.9894 15.6776 15.3867 15.2929 15.3867 14.8185C15.3867 14.344 14.9894 13.9594 14.4994 13.9594ZM16.7571 15.1102C16.2671 15.1102 15.8698 15.4948 15.8698 15.9693C15.8698 16.4438 16.267 16.8284 16.7571 16.8284C17.2472 16.8284 17.6445 16.4438 17.6445 15.9693C17.6445 15.4949 17.2472 15.1102 16.7571 15.1102ZM21.0255 13.0308C20.5355 13.0308 20.1382 13.4154 20.1382 13.8899C20.1382 14.3644 20.5354 14.7491 21.0255 14.7491C21.5156 14.7491 21.9129 14.3644 21.9129 13.8899C21.9129 13.4155 21.5156 13.0308 21.0255 13.0308V13.0308ZM23.1598 11.9911C22.6697 11.9911 22.2724 12.3757 22.2724 12.8502C22.2724 13.3247 22.6697 13.7094 23.1598 13.7094C23.6499 13.7094 24.0472 13.3247 24.0472 12.8502C24.0472 12.3758 23.6499 11.9911 23.1598 11.9911ZM25.294 10.9514C24.804 10.9514 24.4067 11.336 24.4067 11.8106C24.4067 12.285 24.8039 12.6697 25.294 12.6697C25.7841 12.6697 26.1814 12.285 26.1814 11.8106C26.1814 11.3361 25.7841 10.9514 25.294 10.9514ZM27.4283 9.91175C26.9382 9.91175 26.5409 10.2963 26.5409 10.7709C26.5409 11.2453 26.9381 11.63 27.4283 11.63C27.9184 11.63 28.3157 11.2453 28.3157 10.7709C28.3157 10.2964 27.9184 9.91175 27.4283 9.91175ZM29.5625 8.87206C29.0725 8.87206 28.6752 9.25663 28.6752 9.73117C28.6752 10.2056 29.0724 10.5903 29.5625 10.5903C30.0526 10.5903 30.4499 10.2056 30.4499 9.73117C30.4499 9.25671 30.0526 8.87206 29.5625 8.87206ZM29.5849 6.71346C29.0949 6.71346 28.6976 7.09804 28.6976 7.57258C28.6976 8.04704 29.0948 8.4317 29.5849 8.4317C30.075 8.4317 30.4723 8.04704 30.4723 7.57258C30.4723 7.09812 30.075 6.71346 29.5849 6.71346ZM27.4731 5.59456C26.983 5.59456 26.5857 5.97914 26.5857 6.45368C26.5857 6.92814 26.9829 7.3128 27.4731 7.3128C27.9631 7.3128 28.3604 6.92814 28.3604 6.45368C28.3604 5.97922 27.9631 5.59456 27.4731 5.59456ZM25.3612 4.47566C24.8711 4.47566 24.4738 4.86024 24.4738 5.33478C24.4738 5.80924 24.871 6.1939 25.3612 6.1939C25.8513 6.1939 26.2486 5.80924 26.2486 5.33478C26.2486 4.86032 25.8513 4.47566 25.3612 4.47566ZM31.6967 7.83236C31.2066 7.83236 30.8093 8.21694 30.8093 8.69149C30.8093 9.16595 31.2066 9.5506 31.6967 9.5506C32.1868 9.5506 32.5841 9.16595 32.5841 8.69149C32.5841 8.21702 32.1868 7.83236 31.6967 7.83236ZM18.8914 14.0706C18.4013 14.0706 18.004 14.4552 18.004 14.9297C18.004 15.4042 18.4012 15.7888 18.8914 15.7888C19.3814 15.7888 19.7788 15.4042 19.7788 14.9297C19.7788 14.4553 19.3814 14.0706 18.8914 14.0706ZM3.21091 8.20506C2.72085 8.20506 2.32354 8.58964 2.32354 9.06418C2.32354 9.53865 2.72076 9.9233 3.21091 9.9233C3.70097 9.9233 4.09828 9.53865 4.09828 9.06418C4.09828 8.58972 3.70097 8.20506 3.21091 8.20506ZM0.953151 7.05422C0.463087 7.05422 0.0657808 7.4388 0.0657808 7.91334C0.0657808 8.3878 0.463004 8.77246 0.953151 8.77246C1.44321 8.77246 1.84052 8.3878 1.84052 7.91334C1.84052 7.43888 1.44321 7.05422 0.953151 7.05422ZM5.45184 6.5865C4.96203 6.57005 4.57881 6.17231 4.59581 5.69817C4.6128 5.22395 5.02362 4.85285 5.51343 4.86939C6.00325 4.88584 6.38646 5.28358 6.36947 5.7578C6.35248 6.23194 5.94166 6.60303 5.45184 6.58658V6.5865ZM7.74939 5.51214C7.25958 5.49569 6.87636 5.09795 6.89335 4.62373C6.91035 4.14959 7.32116 3.77841 7.81098 3.79494C8.30071 3.8114 8.68401 4.20913 8.66702 4.68336C8.65002 5.15758 8.23921 5.52859 7.74939 5.51214ZM10.0469 4.43778C9.55712 4.42133 9.17391 4.02359 9.1909 3.54937C9.20789 3.07522 9.61871 2.70413 10.1085 2.72058C10.5983 2.73704 10.9816 3.13477 10.9646 3.609C10.9476 4.08322 10.5368 4.45423 10.0469 4.43778ZM12.3445 3.36342C11.8547 3.34697 11.4715 2.94923 11.4885 2.47501C11.5054 2.00086 11.9163 1.62977 12.4061 1.64622C12.8959 1.66267 13.2792 2.06041 13.2621 2.53463C13.2451 3.00885 12.8343 3.37987 12.3445 3.36342ZM14.642 2.28906C14.1522 2.27261 13.769 1.87486 13.786 1.40064C13.803 0.926422 14.2138 0.555327 14.7036 0.57186C15.1934 0.588312 15.5767 0.986052 15.5597 1.46027C15.5427 1.93449 15.1318 2.30551 14.642 2.28906ZM16.883 1.71773C16.3931 1.70128 16.0099 1.30354 16.0269 0.829315C16.0439 0.355094 16.4547 -0.0160007 16.9446 0.000531621C17.4343 0.0169837 17.8176 0.414722 17.8006 0.888944C17.7836 1.36316 17.3728 1.73418 16.883 1.71773V1.71773ZM3.15413 7.66086C2.66431 7.64441 2.2811 7.24667 2.29809 6.77245C2.31508 6.29823 2.7259 5.92721 3.21572 5.94367C3.70553 5.96012 4.08875 6.35786 4.07176 6.83208C4.05476 7.30622 3.64394 7.67731 3.15413 7.66086ZM18.9948 2.83663C18.505 2.82018 18.1217 2.42244 18.1387 1.94822C18.1557 1.47408 18.5665 1.1029 19.0563 1.11943C19.5462 1.13589 19.9295 1.53363 19.9124 2.00785C19.8954 2.48207 19.4846 2.85308 18.9948 2.83663ZM21.1066 3.95553C20.6168 3.93908 20.2336 3.54134 20.2506 3.06712C20.2676 2.5929 20.6784 2.2218 21.1682 2.23834C21.658 2.25479 22.0413 2.65253 22.0242 3.12675C22.0073 3.60089 21.5964 3.97198 21.1066 3.95553ZM23.2185 5.07443C22.7288 5.05798 22.3455 4.66024 22.3624 4.18602C22.3794 3.7118 22.7903 3.34071 23.2801 3.35724C23.7699 3.37369 24.1532 3.77143 24.1361 4.24565C24.1191 4.71987 23.7083 5.09089 23.2185 5.07443ZM0.856581 10.4647C0.366766 10.4482 -0.0164491 10.0505 0.000543996 9.57629C0.0175371 9.10206 0.428355 8.73105 0.91817 8.7475C1.40799 8.76395 1.7912 9.16169 1.77421 9.63591C1.75721 10.1101 1.3464 10.4812 0.856581 10.4647ZM0.856581 12.9492C0.366766 12.9327 -0.0164491 12.535 0.000543996 12.0608C0.0175371 11.5866 0.428355 11.2156 0.91817 11.232C1.40799 11.2485 1.7912 11.6462 1.77421 12.1204C1.75721 12.5946 1.3464 12.9657 0.856581 12.9492ZM0.856581 15.2827C0.366766 15.2663 -0.0164491 14.8686 0.000543996 14.3943C0.0175371 13.9202 0.428355 13.5491 0.91817 13.5656C1.40799 13.582 1.7912 13.9797 1.77421 14.454C1.75721 14.9282 1.3464 15.2992 0.856581 15.2827V15.2827ZM0.856581 17.9456C0.366766 17.9291 -0.0164491 17.5314 0.000543996 17.0572C0.0175371 16.5829 0.428355 16.2119 0.91817 16.2284C1.40799 16.2448 1.7912 16.6426 1.77421 17.1168C1.75721 17.591 1.3464 17.962 0.856581 17.9456ZM0.856581 20.447C0.366766 20.4306 -0.0164491 20.0328 0.000543996 19.5586C0.0175371 19.0845 0.428355 18.7134 0.91817 18.7298C1.40799 18.7463 1.7912 19.144 1.77421 19.6182C1.75721 20.0925 1.3464 20.4635 0.856581 20.447ZM0.856581 22.6623C0.366766 22.6458 -0.0164491 22.2481 0.000543996 21.7739C0.0175371 21.2996 0.428355 20.9286 0.91817 20.9451C1.40799 20.9615 1.7912 21.3593 1.77421 21.8335C1.75721 22.3077 1.3464 22.6787 0.856581 22.6623ZM1.11695 25.1162C0.627132 25.0997 0.243918 24.702 0.260911 24.2278C0.277905 23.7536 0.688723 23.3826 1.17854 23.399C1.66835 23.4155 2.05157 23.8132 2.03458 24.2874C2.01758 24.7616 1.60676 25.1326 1.11695 25.1162ZM3.35083 26.2052C2.86102 26.1887 2.4778 25.791 2.4948 25.3168C2.51179 24.8426 2.92261 24.4715 3.41242 24.488C3.90216 24.5044 4.28545 24.9022 4.26846 25.3764C4.25147 25.8506 3.84065 26.2216 3.35083 26.2052ZM5.55612 27.4404C5.06631 27.424 4.68309 27.0262 4.70008 26.552C4.71708 26.0779 5.1279 25.7068 5.61771 25.7232C6.10753 25.7397 6.49074 26.1374 6.47375 26.6116C6.45675 27.0858 6.04594 27.4569 5.55612 27.4404ZM7.90498 28.6028C7.41517 28.5863 7.03195 28.1886 7.04894 27.7143C7.06594 27.2401 7.47675 26.8691 7.96657 26.8856C8.4563 26.902 8.8396 27.2997 8.82261 27.774C8.80561 28.2481 8.3948 28.6192 7.90498 28.6028ZM10.1495 29.7146C9.65966 29.6981 9.27645 29.3004 9.29344 28.8262C9.31043 28.352 9.72125 27.9809 10.2111 27.9974C10.7009 28.0139 11.0841 28.4116 11.0671 28.8858C11.0501 29.36 10.6393 29.731 10.1495 29.7146ZM12.4462 30.8769C11.9564 30.8605 11.5732 30.4627 11.5902 29.9885C11.6072 29.5144 12.018 29.1433 12.5078 29.1597C12.9976 29.1762 13.3808 29.5739 13.3638 30.0481C13.3468 30.5224 12.936 30.8934 12.4462 30.8769ZM14.7537 32.1412C14.2639 32.1247 13.8807 31.727 13.8977 31.2527C13.9146 30.7786 14.3255 30.4075 14.8153 30.424C15.3051 30.4404 15.6883 30.8381 15.6713 31.3124C15.6543 31.7866 15.2435 32.1576 14.7537 32.1412ZM16.9352 32.9995C16.4455 32.983 16.0622 32.5853 16.0792 32.1111C16.0961 31.6368 16.507 31.2658 16.9968 31.2823C17.4866 31.2987 17.8698 31.6965 17.8528 32.1707C17.8358 32.6449 17.425 33.0159 16.9352 32.9995V32.9995ZM16.6244 29.7607C16.1346 29.7443 15.7514 29.3466 15.7684 28.8723C15.7854 28.3981 16.1962 28.0271 16.686 28.0435C17.1757 28.06 17.559 28.4577 17.542 28.932C17.5251 29.4061 17.1142 29.7772 16.6244 29.7607ZM16.6742 27.2384C16.1843 27.2219 15.8011 26.8242 15.8181 26.3499C15.8351 25.8758 16.2459 25.5047 16.7357 25.5212C17.2256 25.5376 17.6088 25.9354 17.5918 26.4096C17.5748 26.8838 17.164 27.2548 16.6742 27.2384ZM16.6742 24.7116C16.1843 24.6951 15.8011 24.2974 15.8181 23.8231C15.8351 23.3489 16.2459 22.9779 16.7357 22.9944C17.2256 23.0108 17.6088 23.4086 17.5918 23.8828C17.5748 24.357 17.164 24.728 16.6742 24.7116ZM16.5445 19.7935C16.0548 19.7771 15.6715 19.3793 15.6885 18.9051C15.7055 18.4309 16.1163 18.0599 16.6061 18.0763C17.0959 18.0928 17.4791 18.4905 17.4621 18.9647C17.4451 19.4389 17.0343 19.81 16.5445 19.7935ZM16.6836 22.2352C16.1938 22.2188 15.8106 21.821 15.8276 21.3468C15.8446 20.8727 16.2554 20.5016 16.7452 20.518C17.235 20.5345 17.6182 20.9322 17.6012 21.4065C17.5842 21.8807 17.1734 22.2517 16.6836 22.2352ZM32.0818 12.4607C31.592 12.4442 31.2088 12.0465 31.2258 11.5723C31.2428 11.0981 31.6536 10.727 32.1434 10.7435C32.6332 10.76 33.0164 11.1577 32.9995 11.6319C32.9825 12.1061 32.5716 12.4771 32.0818 12.4607ZM32.0818 14.9002C31.592 14.8837 31.2088 14.486 31.2258 14.0118C31.2428 13.5375 31.6536 13.1665 32.1434 13.183C32.6332 13.1994 33.0164 13.5972 32.9995 14.0714C32.9825 14.5455 32.5716 14.9166 32.0818 14.9002V14.9002ZM32.0818 17.3397C31.592 17.3233 31.2088 16.9255 31.2258 16.4513C31.2428 15.9771 31.6536 15.6061 32.1434 15.6225C32.6332 15.639 33.0164 16.0367 32.9995 16.511C32.9825 16.9851 32.5716 17.3562 32.0818 17.3397ZM32.0818 19.7792C31.592 19.7628 31.2088 19.365 31.2258 18.8908C31.2428 18.4166 31.6536 18.0456 32.1434 18.062C32.6332 18.0785 33.0164 18.4762 32.9995 18.9504C32.9825 19.4246 32.5716 19.7957 32.0818 19.7792ZM32.0818 22.2188C31.592 22.2023 31.2088 21.8046 31.2258 21.3304C31.2428 20.8562 31.6536 20.4851 32.1434 20.5016C32.6332 20.518 33.0164 20.9158 32.9995 21.39C32.9825 21.8642 32.5716 22.2352 32.0818 22.2188ZM32.0818 24.6583C31.592 24.6418 31.2088 24.2441 31.2258 23.7699C31.2428 23.2957 31.6536 22.9246 32.1434 22.9411C32.6332 22.9575 33.0164 23.3553 32.9995 23.8295C32.9825 24.3037 32.5716 24.6747 32.0818 24.6583ZM29.9796 25.8499C30.4693 25.8334 30.8526 25.4357 30.8356 24.9615C30.8186 24.4872 30.4078 24.1162 29.918 24.1327C29.4282 24.1491 29.045 24.5469 29.062 25.0211C29.0789 25.4953 29.4898 25.8663 29.9796 25.8499ZM27.8157 27.0415C28.3055 27.025 28.6888 26.6273 28.6718 26.1531C28.6548 25.6789 28.244 25.3078 27.7541 25.3243C27.2644 25.3407 26.8811 25.7385 26.8981 26.2127C26.9151 26.6869 27.3259 27.0579 27.8157 27.0415ZM25.6519 28.2331C26.1417 28.2167 26.5249 27.8189 26.5079 27.3447C26.4909 26.8705 26.0801 26.4995 25.5903 26.5159C25.1005 26.5324 24.7173 26.9301 24.7343 27.4043C24.7513 27.8785 25.1621 28.2496 25.6519 28.2331ZM23.4881 29.4247C23.9778 29.4083 24.3611 29.0105 24.3441 28.5363C24.3271 28.0621 23.9163 27.6911 23.4265 27.7075C22.9366 27.724 22.5534 28.1217 22.5704 28.5959C22.5874 29.0702 22.9982 29.4412 23.4881 29.4247ZM21.3242 30.6163C21.814 30.5999 22.1972 30.2021 22.1803 29.7279C22.1633 29.2538 21.7524 28.8827 21.2626 28.8991C20.7728 28.9156 20.3896 29.3133 20.4066 29.7875C20.4236 30.2618 20.8344 30.6328 21.3242 30.6163ZM19.1604 31.8079C19.6502 31.7915 20.0334 31.3937 20.0164 30.9195C19.9994 30.4453 19.5886 30.0743 19.0988 30.0907C18.609 30.1072 18.2258 30.5049 18.2427 30.9792C18.2597 31.4533 18.6706 31.8244 19.1604 31.8079Z" fill="#FF2F2F"/>
</svg>