<svg width="14" height="11" viewBox="0 0 14 11" fill="none" xmlns="http://www.w3.org/2000/svg">
<path fill-rule="evenodd" clip-rule="evenodd" d="M9.39884 0.00587186C8.84366 0.07276 8.38075 0.247787 7.97079 0.54583C7.18801 1.11489 6.76191 2.00367 6.81897 2.94838C6.82849 3.10625 6.8673 3.37655 6.88425 3.40312C6.89114 3.41391 6.83903 3.41138 6.5603 3.38733C4.46637 3.20673 2.49207 2.21972 1.11365 0.664401C1.03766 0.578644 0.971072 0.508491 0.965676 0.508491C0.9517 0.508491 0.809621 0.789684 0.761957 0.911679C0.624548 1.26339 0.571476 1.58036 0.58214 1.9856C0.598352 2.60204 0.785332 3.11379 1.17967 3.62102C1.27747 3.74681 1.58076 4.03749 1.71287 4.13206C1.84013 4.22314 1.83782 4.2259 1.65114 4.20519C1.32631 4.16917 1.00133 4.07973 0.720637 3.94908C0.634439 3.90897 0.561223 3.87614 0.557945 3.87614C0.554668 3.87614 0.555054 3.9565 0.558823 4.05473C0.599569 5.11829 1.32125 6.10127 2.35381 6.49962C2.47679 6.54706 2.69766 6.61435 2.76851 6.62593C2.83265 6.63643 2.81558 6.64951 2.70955 6.67112C2.35706 6.74294 1.95293 6.7507 1.60431 6.69231C1.54961 6.68315 1.54981 6.68565 1.61694 6.85147C1.95856 7.69537 2.71142 8.3348 3.61246 8.54631C3.78289 8.58631 3.88079 8.60171 4.07856 8.61959L4.22466 8.6328L4.09027 8.7289C3.35999 9.25103 2.48401 9.60235 1.55856 9.74424C1.12185 9.8112 0.41926 9.82579 0.0423025 9.77574C-0.0330446 9.76574 -0.0180384 9.77886 0.171892 9.88909C1.1902 10.48 2.25044 10.8351 3.4109 10.9739C3.70155 11.0087 5.14041 11.0087 5.44244 10.9739C7.58901 10.7267 9.41564 9.75073 10.7313 8.14794C11.9251 6.69354 12.5768 4.89866 12.5768 3.06502V2.745L12.6617 2.68305C13.025 2.41789 13.4124 2.05351 13.7094 1.69774C13.8092 1.5781 14.0065 1.31132 13.9998 1.30489C13.9968 1.30197 13.9375 1.3227 13.8679 1.35095C13.5828 1.46676 13.2221 1.57687 12.9112 1.64301C12.7519 1.67692 12.3999 1.7356 12.3935 1.72934C12.3914 1.72735 12.4414 1.69189 12.5046 1.6505C12.9695 1.34582 13.3677 0.856776 13.5636 0.349746C13.5865 0.290501 13.6088 0.233103 13.6132 0.222184C13.6257 0.190968 13.6108 0.196739 13.4338 0.291703C12.9966 0.52635 12.4755 0.719281 11.9772 0.830935L11.793 0.872197L11.7021 0.785375C11.2545 0.358035 10.6407 0.0766832 10.0109 0.0102373C9.90594 -0.000840767 9.47976 -0.00387959 9.39884 0.00587186Z" fill="white"/>
</svg>