<svg width="103" height="58" viewBox="0 0 103 58" fill="none" xmlns="http://www.w3.org/2000/svg">
<path fill-rule="evenodd" clip-rule="evenodd" d="M40.921 28.3713C40.9781 26.9996 41.3145 25.6528 41.9105 24.4095C42.5066 23.1662 43.3504 22.0514 44.3927 21.1302C45.4349 20.209 46.6547 19.4999 47.9807 19.0443C49.3068 18.5888 50.7125 18.3959 52.1157 18.4769C53.5189 18.3959 54.9246 18.5888 56.2507 19.0443C57.5767 19.4999 58.7965 20.209 59.8387 21.1302C60.881 22.0514 61.7248 23.1662 62.3209 24.4095C62.9169 25.6528 63.2533 26.9996 63.3104 28.3713C63.2533 29.743 62.9169 31.0899 62.3209 32.3332C61.7248 33.5765 60.881 34.6913 59.8387 35.6125C58.7965 36.5336 57.5767 37.2427 56.2507 37.6983C54.9246 38.1539 53.5189 38.3468 52.1157 38.2657C50.7125 38.3468 49.3068 38.1539 47.9807 37.6983C46.6547 37.2427 45.4349 36.5336 44.3927 35.6125C43.3504 34.6913 42.5066 33.5765 41.9105 32.3332C41.3145 31.0899 40.9781 29.743 40.921 28.3713ZM101.876 26.0207C97.5107 21.2088 92.6321 16.8657 87.323 13.065C82.4273 9.48601 77.109 6.49442 71.4825 4.15457C65.1754 1.47168 58.3791 0.0586589 51.5 0C44.6214 0.0631332 37.826 1.47597 31.5175 4.15457C25.891 6.49442 20.5727 9.48601 15.677 13.065C10.3679 16.8657 5.48927 21.2088 1.12395 26.0207C0.398488 26.8517 0 27.9079 0 29C0 30.092 0.398488 31.1483 1.12395 31.9792C5.47261 36.8071 10.3531 41.1519 15.677 44.9349C20.5595 48.5335 25.8803 51.5265 31.5175 53.8454C37.826 56.524 44.6214 57.9368 51.5 57.9999C53.9179 58.004 56.3322 57.8212 58.7206 57.4533L57.5451 50.5108C55.5471 50.8351 53.5254 50.9997 51.5 51.0028C45.5832 50.9293 39.7411 49.7027 34.3162 47.3949C29.2129 45.1911 24.3861 42.4214 19.931 39.1404C15.7164 36.0727 11.7834 32.6523 8.1766 28.918C11.7879 25.2047 15.7206 21.8028 19.931 18.7502C24.381 15.4915 29.2095 12.7576 34.3162 10.6051C39.7496 8.32327 45.5864 7.09777 51.5 6.99716C57.4136 7.09777 63.2504 8.32327 68.6838 10.6051C73.7905 12.7576 78.619 15.4915 83.069 18.7502C87.2794 21.8028 91.2121 25.2047 94.8234 28.918C91.2166 32.6523 87.2836 36.0727 83.069 39.1404C80.4867 40.9879 77.7953 42.6855 75.0088 44.2243L73.1617 45.2082L69.4675 47.2309L64.8776 40.2337C66.5318 38.7077 67.8512 36.8694 68.7557 34.8302C69.6602 32.791 70.1308 30.5936 70.1391 28.3713C70.0811 26.0954 69.5644 23.853 68.6186 21.7722C67.6728 19.6914 66.3165 17.813 64.6271 16.2444C62.9378 14.6757 60.9485 13.4475 58.7729 12.63C56.5973 11.8124 54.2781 11.4216 51.9478 11.4797C49.6101 11.4142 47.2821 11.7992 45.0968 12.6128C42.9115 13.4264 40.9118 14.6526 39.212 16.2213C37.5122 17.79 36.1456 19.6705 35.1903 21.7552C34.235 23.84 33.7097 26.0882 33.6445 28.3713C33.7026 30.6544 34.2207 32.9039 35.1693 34.9913C36.1179 37.0788 37.4783 38.9632 39.1729 40.5369C40.8675 42.1107 42.8629 43.3429 45.0453 44.1632C47.2277 44.9835 49.5542 45.3757 51.8918 45.3176C54.2325 45.3055 56.5496 44.8603 58.7206 44.0056L66.8367 56.2506L67.3405 55.9226V56.3053L76.4641 51.3308L78.3112 50.3468C81.3536 48.704 84.2885 46.8783 87.0991 44.8802C92.4983 41.1271 97.4543 36.8003 101.876 31.9792C102.602 31.1483 103 30.092 103 29C103 27.9079 102.602 26.8517 101.876 26.0207Z" fill="white"/>
</svg>
