<svg width="420" height="356" fill="none" xmlns="http://www.w3.org/2000/svg"><path d="M99.727 267.585l-45.05 10.593 2.429 56.256 43.651-13.015-1.03-53.834z" fill="#B9B9BB"/><path d="M20.173 270.463l34.506 7.716 2.429 56.256-33.865-12.941-3.07-51.031z" fill="#ACADB1"/><path d="M20.172 270.462l34.506 7.716 45.05-10.593-37.415-6.423-42.14 9.3z" fill="#F4F4F4"/><rect x="73" width="347" height="347" rx="20" fill="#ACADB1"/><rect x="81" y="8" width="331" height="331" rx="20" fill="#F4F4F4"/><rect x="102" y="30" width="288" height="288" rx="20" fill="url(#prefix__paint0_linear_402_891)"/><path d="M372 79.25V48h-31.25m-187.5 0H122v31.25m0 187.5V298h31.25m187.5 0H372v-31.25" stroke="#40BE46" stroke-width="4" stroke-linecap="round" stroke-linejoin="bevel"/><path fill="url(#prefix__paint1_linear_402_891)" d="M125 172h247v118H125z"/><mask id="prefix__a" style="mask-type:alpha" maskUnits="userSpaceOnUse" x="126" y="172" width="242" height="117"><path fill="#203622" d="M126.094 172.808h241.24v115.629h-241.24z"/></mask><g mask="url(#prefix__a)" stroke-width="2" stroke-dasharray="7 7"><path d="M307.368 126.219l-62.69 14.741 3.379 78.285 60.743-18.112-1.432-74.914z" stroke="url(#prefix__paint2_linear_402_891)"/><path d="M196.661 130.224l48.018 10.737 3.38 78.285-47.126-18.009-4.272-71.013z" stroke="url(#prefix__paint3_linear_402_891)"/><path d="M196.66 130.223l48.018 10.737 62.69-14.74-52.065-8.939-58.643 12.942z" stroke="url(#prefix__paint4_linear_402_891)"/></g><mask id="prefix__b" style="mask-type:alpha" maskUnits="userSpaceOnUse" x="125" y="56" width="242" height="116"><path fill="#203622" d="M125.245 56.063h241.24v115.629h-241.24z"/></mask><g mask="url(#prefix__b)"><path d="M309.74 110.442l-64.014 15.052 3.45 79.939 62.027-18.495-1.463-76.496z" fill="#B9B9BB"/><path d="M196.695 114.531l49.032 10.964 3.451 79.939-48.121-18.389-4.362-72.514z" fill="#ACADB1"/><path d="M196.694 114.53l49.032 10.964 64.015-15.052-53.166-9.128-59.881 13.216z" fill="#F4F4F4"/></g><path d="M120.998 173.285h250.584" stroke="#40BE46" stroke-width="3"/><path d="M120.998 181.78h250.584" stroke="#6AC281" stroke-opacity=".7"/><defs><linearGradient id="prefix__paint0_linear_402_891" x1="221.788" y1="57.611" x2="246" y2="318" gradientUnits="userSpaceOnUse"><stop stop-color="#274A2B"/><stop offset="1" stop-color="#050406"/></linearGradient><linearGradient id="prefix__paint1_linear_402_891" x1="248.5" y1="172" x2="248.5" y2="290" gradientUnits="userSpaceOnUse"><stop stop-color="#203622"/><stop offset="1" stop-color="#101010" stop-opacity="0"/></linearGradient><linearGradient id="prefix__paint2_linear_402_891" x1="246.435" y1="200.376" x2="255.691" y2="156.348" gradientUnits="userSpaceOnUse"><stop stop-color="red"/><stop offset="1" stop-color="#FE0000" stop-opacity="0"/></linearGradient><linearGradient id="prefix__paint3_linear_402_891" x1="205.905" y1="198.687" x2="224.221" y2="163.635" gradientUnits="userSpaceOnUse"><stop stop-color="red"/><stop offset="1" stop-color="#FE0000" stop-opacity="0"/></linearGradient><linearGradient id="prefix__paint4_linear_402_891" x1="219.745" y1="154.147" x2="219.132" y2="121.553" gradientUnits="userSpaceOnUse"><stop stop-color="red"/><stop offset="1" stop-color="#FE0000" stop-opacity="0"/></linearGradient></defs></svg>