<svg width="470" height="434" viewBox="0 0 470 434" fill="none" xmlns="http://www.w3.org/2000/svg">
<path d="M406.365 301.829L451.909 259.012L411 194.356L406.365 301.829Z" fill="#CCCCCC"/>
<path d="M406.365 301.829L451.909 259.012L406.365 273.271L406.365 301.829Z" fill="#8E8E8E"/>
<g filter="url(#filter0_d_562_116)">
<path d="M343 253.962L379.649 243.011L416.272 210.17L377.589 223.788L343 253.962Z" fill="#646464"/>
<path d="M415.957 209.768L377.634 245.094L407.458 290.976L445.279 256.138L415.957 209.768Z" fill="#151515"/>
</g>
<path d="M415.733 245.439C415.951 244.86 415.182 243.692 414.015 242.83C413.019 242.095 412.055 241.819 411.658 242.114C411.59 242.165 411.538 242.232 411.506 242.317C411.498 242.338 411.491 242.359 411.486 242.382C411.25 242.857 411.199 243.745 411.394 244.761C411.685 246.273 412.408 247.494 413.011 247.488C413.104 247.487 413.189 247.458 413.265 247.401C413.626 247.134 413.781 246.278 413.65 245.214C414.485 245.729 415.241 245.895 415.581 245.643C415.65 245.592 415.701 245.524 415.733 245.439ZM408.26 245.391C408.326 245.343 408.39 245.29 408.455 245.235C410.01 243.897 410.184 242.044 409.188 240.423C408.193 238.803 407.077 238.038 404.851 239.367C404.707 239.453 404.574 239.541 404.452 239.631C402.692 240.935 403.187 242.662 404.118 244.178C405.072 245.731 406.752 246.507 408.26 245.391ZM415.801 239.726C417.308 238.611 417.283 236.608 416.329 235.055C415.398 233.539 414.126 232.388 412.364 233.692C412.242 233.782 412.118 233.884 411.992 233.999C410.036 235.767 410.263 237.189 411.259 238.81C412.254 240.431 413.884 240.948 415.595 239.867C415.667 239.822 415.735 239.775 415.801 239.726ZM418.048 234.348C418.805 234.438 419.623 235.006 420.188 235.926C421.051 237.331 421 239.026 420.074 239.712C419.934 239.816 419.782 239.89 419.621 239.937C419.184 240.329 418.451 241.545 420.062 244.83C420.291 245.298 420.327 245.655 420.208 245.921C420.184 245.976 420.153 246.027 420.115 246.075C419.362 247.739 417.283 249.441 417.174 249.53L416.371 250.137C416.256 250.221 414.07 251.804 412.383 251.948C412.328 251.968 412.274 251.98 412.218 251.985C411.949 252.006 411.66 251.835 411.352 251.427C409.181 248.555 407.88 248.846 407.386 249.145C407.286 249.291 407.166 249.418 407.025 249.522C406.1 250.207 404.65 249.624 403.787 248.218C403.222 247.298 403.048 246.253 403.256 245.449C403.313 243.919 401.99 242.829 401.142 242.115C400.156 241.325 399.271 240.33 398.542 239.144C395.363 233.968 396.372 227.116 400.797 223.84C405.222 220.564 411.384 222.103 414.563 227.279C415.426 228.685 415.981 230.214 416.242 231.762C416.54 232.789 417.024 233.946 418.048 234.348Z" fill="url(#paint0_linear_562_116)"/>
<path d="M405.422 255.262C405.605 255.127 405.847 255.053 406.152 255.062C406.854 255.083 407.386 255.504 408.024 255.777C409.443 256.384 410.233 256.265 411.871 256.092C412.78 255.995 419.422 255.094 419.683 254.901C419.943 254.701 423.166 248.293 423.612 247.392C424.274 246.056 424.787 245.085 424.786 243.357C424.786 242.588 424.639 241.909 424.903 241.139C424.995 240.869 425.135 240.677 425.305 240.553C425.673 240.28 426.172 240.328 426.58 240.589C427.372 241.094 427.5 241.84 428.458 241.773C428.921 241.74 428.967 241.655 429.42 242.052C430.526 243.023 430.791 244.249 430.206 245.385C429.874 246.032 429.447 246.406 428.895 246.815C428.796 246.888 428.693 246.962 428.586 247.039C428.562 247.057 428.539 247.074 428.515 247.092C427.233 248.04 426.628 249.175 425.835 250.497C425.474 251.099 423.832 253.802 423.752 254.197C424.059 254.259 427.124 253.604 427.616 253.484C428.679 253.222 429.44 252.959 430.193 252.402C430.577 252.118 430.959 251.756 431.377 251.279C431.728 250.88 432.066 250.525 432.407 250.273C433.189 249.693 433.987 249.655 434.987 250.859C435.919 251.982 434.996 252.526 435.673 254.4C436.112 255.613 435.949 256.777 435.241 257.301C435.161 257.361 435.073 257.412 434.978 257.454C434.4 257.713 433.548 257.339 433.072 257.178C431.643 256.696 430.867 256.733 429.264 256.919C428.384 257.021 421.931 257.843 421.594 258.094C421.28 258.38 418.143 264.676 417.731 265.539C416.929 267.222 416.734 267.814 416.568 269.531C416.515 270.076 416.501 271.088 416.026 271.528C415.995 271.556 415.964 271.582 415.931 271.606C415.434 271.974 414.645 271.933 414.118 271.676C413.459 271.353 413.036 270.592 412.296 270.244C411.753 269.99 410.923 269.941 410.507 268.915C409.917 267.459 410.248 266.666 411.012 266.1C411.362 265.841 411.804 265.629 412.29 265.422C412.773 265.218 413.198 264.974 413.579 264.692C414.382 264.097 414.992 263.331 415.537 262.4C415.843 261.877 417.516 259.09 417.563 258.781C417.195 258.713 414.217 259.393 413.661 259.516C412.266 259.823 411.059 260.019 409.774 260.97C409.753 260.986 409.732 261.002 409.71 261.018C409.582 261.116 409.46 261.209 409.341 261.297C408.8 261.697 408.333 261.985 407.662 262.059C406.438 262.195 405.553 261.436 405.169 259.94C405.022 259.366 405.143 259.353 405.32 258.863C405.685 257.852 405.147 257.595 405.016 256.559C404.945 256.002 405.075 255.52 405.422 255.262Z" fill="url(#paint1_linear_562_116)"/>
<path d="M411.556 194.182L366.012 236.999L406.847 301.166L411.556 194.182Z" fill="#363636"/>
<path d="M320.439 251.278L366.015 236.999L406.849 301.167L358.495 308.9L320.439 251.278Z" fill="black"/>
<path d="M320.437 251.277L366.012 236.999L411.556 194.182L363.451 211.937L320.437 251.277Z" fill="#646464"/>
<path d="M56.3329 264.16L81.5 240.5L58.8938 204.772L56.3329 264.16Z" fill="#CCCCCC"/>
<path d="M56.0136 264.4L81.5 240.5L56.0136 248.619L56.0136 264.4Z" fill="#8E8E8E"/>
<path d="M58.8818 204.916L33.7147 228.575L56.2795 264.034L81.5 240.5L58.8818 204.916Z" fill="#363636"/>
<path d="M8.53138 236.466L33.7159 228.576L56.2808 264.034L29.5605 268.307L8.53138 236.466Z" fill="black"/>
<path d="M8.53027 236.466L33.7148 228.575L58.8819 204.915L32.2994 214.727L8.53027 236.466Z" fill="#646464"/>
<path d="M249.883 198.887L270.828 179.196L252.014 149.461L249.883 198.887Z" fill="#CCCCCC"/>
<path d="M249.617 199.087L270.828 179.196L249.617 185.954L249.617 199.087Z" fill="#8E8E8E"/>
<path d="M252.004 149.581L231.059 169.272L249.838 198.782L270.828 179.196L252.004 149.581Z" fill="#363636"/>
<path d="M210.1 175.839L231.06 169.272L249.84 198.782L227.602 202.339L210.1 175.839Z" fill="black"/>
<path d="M210.1 175.839L231.059 169.272L252.005 149.581L229.881 157.746L210.1 175.839Z" fill="#646464"/>
<path d="M250.801 301.688L182.875 317.66L186.537 402.483L252.353 382.858L250.801 301.688Z" fill="#B9B9BB"/>
<path d="M130.847 306.027L182.875 317.661L186.536 402.484L135.475 382.971L130.847 306.027Z" fill="#ACADB1"/>
<path d="M130.847 306.026L182.875 317.66L250.8 301.688L194.386 292.003L130.847 306.026Z" fill="#F4F4F4"/>
<path d="M358.163 8.53131L336.624 43.3139L373.308 76.9624L392.458 41.5397L358.163 8.53131Z" fill="#B9B9BB"/>
<path d="M310.23 60.0612L336.623 43.3144L373.308 76.9629L344.049 90.0425L310.23 60.0612Z" fill="#ACADB1"/>
<path d="M310.229 60.061L336.623 43.3141L358.162 8.53151L330.758 27.9045L310.229 60.061Z" fill="#F4F4F4"/>
<path d="M108.621 11L145.763 45.159L108.621 116.422L76 76.2623L108.621 11Z" fill="#ACADB1"/>
<path d="M108.62 11L145.762 45.1591L209 64.2132L167.341 29.5758L108.62 11Z" fill="#F4F4F4"/>
<path d="M152.598 118.859L143.257 124.684L108.62 116.422L145.762 45.159L208.646 64.2131L180.888 114.989L173.616 110.484L173.149 104.38L169.88 110.017L173.149 116.422L171.861 131.502L158.02 128.201L158.67 108.584L169.88 99.2428L152.598 107.215V118.859Z" fill="#B9B9BB"/>
<path d="M149.329 120.898L152.598 118.859V107.215L155.868 105.707L169.879 99.2428L158.67 108.584L158.02 128.201L149.329 120.898Z" fill="#ACADB1"/>
<path d="M173.149 104.38L171.281 107.602L173.616 110.484L173.149 104.38Z" fill="#ACADB1"/>
<path d="M203.608 92.4647L174.157 146.073L151.254 140.64L151.254 140.64L123.696 134.099L153.428 77.3345L203.608 92.4647Z" stroke="#40BE46"/>
<path d="M147.916 81.974L152.578 73.2336L159.57 75.5644" stroke="black"/>
<path d="M179.965 141.409L175.303 150.15L167.728 148.402" stroke="black"/>
<path d="M203.855 98.8723L208.517 90.1318L202.69 88.3837" stroke="black"/>
<path d="M124.026 127.425L118.781 136.748L124.608 137.913" stroke="black"/>
<mask id="mask0_562_116" style="mask-type:alpha" maskUnits="userSpaceOnUse" x="127" y="79" width="74" height="65">
<path d="M173.307 143.517L152.42 138.491L127.128 132.4L154.25 79.8669L200.169 93.913L173.307 143.517Z" fill="#B9B9BB"/>
</mask>
<g mask="url(#mask0_562_116)">
<path d="M108.621 11L145.763 45.159L108.621 116.422L76 76.2623L108.621 11Z" fill="#AC0411"/>
<path d="M152.598 118.859L143.257 124.684L108.62 116.422L145.762 45.159L208.646 64.2131L180.888 114.989L173.616 110.484L173.149 104.38L169.88 110.017L173.149 116.422L171.861 131.502L158.02 128.201L158.67 108.584L169.88 99.2428L152.598 107.215V118.859Z" fill="#40BE46"/>
<path d="M149.329 120.898L152.598 118.859V107.215L155.868 105.707L169.879 99.2428L158.67 108.584L158.02 128.201L149.329 120.898Z" fill="#AC0411"/>
<path d="M173.149 104.38L171.281 107.602L173.616 110.484L173.149 104.38Z" fill="#AC0411"/>
</g>
<defs>
<filter id="filter0_d_562_116" x="339" y="209.768" width="110.279" height="89.2085" filterUnits="userSpaceOnUse" color-interpolation-filters="sRGB">
<feFlood flood-opacity="0" result="BackgroundImageFix"/>
<feColorMatrix in="SourceAlpha" type="matrix" values="0 0 0 0 0 0 0 0 0 0 0 0 0 0 0 0 0 0 127 0" result="hardAlpha"/>
<feOffset dy="4"/>
<feGaussianBlur stdDeviation="2"/>
<feComposite in2="hardAlpha" operator="out"/>
<feColorMatrix type="matrix" values="0 0 0 0 0 0 0 0 0 0 0 0 0 0 0 0 0 0 0.25 0"/>
<feBlend mode="normal" in2="BackgroundImageFix" result="effect1_dropShadow_562_116"/>
<feBlend mode="normal" in="SourceGraphic" in2="effect1_dropShadow_562_116" result="shape"/>
</filter>
<linearGradient id="paint0_linear_562_116" x1="397" y1="254.356" x2="428.547" y2="262.069" gradientUnits="userSpaceOnUse">
<stop stop-color="#FF9900" stop-opacity="0"/>
<stop offset="1" stop-color="#FF9900"/>
</linearGradient>
<linearGradient id="paint1_linear_562_116" x1="397" y1="254.356" x2="428.547" y2="262.069" gradientUnits="userSpaceOnUse">
<stop stop-color="#FF9900" stop-opacity="0"/>
<stop offset="1" stop-color="#FF9900"/>
</linearGradient>
</defs>
</svg>
