<svg xmlns="http://www.w3.org/2000/svg" width="357" height="317" fill="none" viewBox="0 0 357 317">
  <path fill="#40BE46" d="M179.026 114.633v-59.28l-52.79 27.268v50.54l52.79-18.528zM179.026 203.553v-66.394l-52.79 15.033v56.955l52.79-5.594zM179.026 292.474V226.08l-52.79 2.097v56.955l52.79 7.342z"/>
  <path stroke="#A5A5A5" d="M.5 148.134l23.898-12.344v32.586L.5 176.764v-28.63zm0 40.384l23.898-6.806v37.723L.5 221.967v-33.449zm23.898 81.946L.5 267.141v-33.467l23.898-.95v37.74zM70.45 112.001l43.811-22.631.085 47.435-43.896 15.407v-40.211zm0 102.554v-45.957l43.81-12.476v53.791l-43.81 4.642zm0 16.339l43.81-1.741v53.809l-43.81-6.093v-45.975zm-9.3.37v44.312l-29.825-4.148v-38.979l29.825-1.185zm-29.825-65.319v-33.734l29.825-15.407v38.672l-29.825 10.469zm0 52.756V179.74l29.825-8.494v44.294l-29.825 3.161zM356.368 148.133l-23.733-12.341v32.585l23.733 8.386v-28.63zm0 40.384l-23.733-6.804v37.722l23.733 2.531v-33.449zm-23.733 81.946l23.733-3.322v-33.468l-23.733-.949v37.739zM286.88 111.999l-43.514-22.627-.084 47.434 43.598 15.404v-40.211zm0 102.555v-45.957l-43.513-12.474v53.79l43.513 4.641zm0 16.34l-43.513-1.741v53.808l43.513-6.092v-45.975zm9.245.37v44.311l29.621-4.147v-38.979l-29.621-1.185zm29.621-65.321V132.21l-29.621-15.404v38.671l29.621 10.466zm0 52.757v-38.961l-29.621-8.492v44.293l29.621 3.16z"/>
  <g>
    <path fill="#339838" d="M179.027 114.633v-59.28l52.44 27.268v50.54l-52.44-18.528zM179.027 203.553v-66.394l52.44 15.033v56.955l-52.44-5.594zM179.027 292.474V226.08l52.44 2.097v56.955l-52.44 7.342z"/>
  </g>
  <path stroke="#fff" stroke-dasharray="2 2" stroke-width="2" d="M239.492 2L119.746 70.765V293.66L239.492 315V2z"/>
  <path fill="#8C0D0D" d="M179.027 203.553v-66.394l52.44 15.033v56.955l-52.44-5.594z"/>
  <path fill="red" d="M179.026 203.553v-66.394l-52.79 15.033v56.955l52.79-5.594z"/>
</svg>