<svg width="163" height="191" viewBox="0 0 163 191" fill="none" xmlns="http://www.w3.org/2000/svg">
<g clip-path="url(#clip0_1210_245)">
<path d="M75.7403 115.085L163 57.8906L157.071 130.391L75.7403 191V115.085Z" fill="#309044"/>
<path d="M75.7403 115.085L0 50.545L4.5399 129.113L75.7403 191V115.085Z" fill="#3AA548"/>
<path d="M0 50.545L75.7403 115.085L163 57.8905L84.9978 0L0 50.545Z" fill="#5DBB5A"/>
</g>
<g filter="url(#filter0_d_1210_245)">
<path d="M143.404 100.951L94.1847 136.968L93.8216 131.392L143.041 95.3917L143.404 100.967V100.951Z" fill="white"/>
</g>
<g filter="url(#filter1_d_1210_245)">
<path d="M110.674 76.5504C110.41 72.5611 112.572 67.5944 115.51 65.4475C118.448 63.3007 121.023 64.8067 121.287 68.796C121.551 72.7854 119.389 77.7521 116.451 79.8989C113.513 82.0458 110.938 80.5398 110.674 76.5665V76.5504ZM139.921 53.3513C139.806 53.2392 136.901 50.5636 132.296 49.0255C129.77 48.1283 127.064 47.8239 124.225 48.0963C120.841 48.4647 117.54 49.8106 114.404 52.1016C111.268 54.3927 108.099 57.7893 104.979 62.1952C102.388 65.8961 99.9615 69.9496 97.7663 74.2914C93.7885 82.0939 91.4942 88.5986 91.3952 88.871C90.7845 90.6013 90.9 92.3637 91.6758 93.0846C91.7913 93.1968 94.6963 95.8724 99.3013 97.4104C101.827 98.2916 104.534 98.6121 107.356 98.3397C110.74 97.9712 114.057 96.6254 117.193 94.3343C118.349 93.4852 119.504 92.4918 120.626 91.3864L119.752 86.7241C118.794 87.6533 117.821 88.4865 116.847 89.2074C114.173 91.1621 111.334 92.3156 108.379 92.636C105.821 92.8764 103.378 92.604 101.084 91.7869C98.9052 91.0499 96.842 89.9604 94.9109 88.5025C96.4789 84.5131 98.212 80.6199 100.11 76.9029C102.091 72.9777 104.286 69.2927 106.63 65.9442C109.353 62.1151 112.077 59.1992 114.75 57.2445C117.424 55.2899 120.263 54.1364 123.218 53.8159C125.776 53.5756 128.219 53.864 130.513 54.6651C132.692 55.4021 134.755 56.4915 136.686 57.9495C135.118 61.9549 133.385 65.8321 131.487 69.549C130.332 71.8081 129.127 74.003 127.856 76.1018L127.031 77.4797L125.347 80.2514L122.789 76.7747C124.258 73.3301 124.967 69.533 124.753 66.2486C124.307 59.4395 119.999 56.7799 115.163 60.3207C110.327 63.8614 106.745 72.2887 107.191 79.0818C107.637 85.875 111.945 88.5506 116.781 85.0098C117.92 84.1767 119.009 83.0392 120.032 81.6613L124.505 87.7335L124.736 87.3329L124.852 87.5252C125.496 86.4838 127.658 82.927 129.011 80.684L129.837 79.3061C131.223 77.0151 132.56 74.6118 133.814 72.1445C137.792 64.3421 140.103 57.8373 140.202 57.565C140.813 55.8346 140.697 54.0723 139.921 53.3513Z" fill="white"/>
</g>
<defs>
<filter id="filter0_d_1210_245" x="89.8216" y="95.3917" width="57.5825" height="52.5758" filterUnits="userSpaceOnUse" color-interpolation-filters="sRGB">
<feFlood flood-opacity="0" result="BackgroundImageFix"/>
<feColorMatrix in="SourceAlpha" type="matrix" values="0 0 0 0 0 0 0 0 0 0 0 0 0 0 0 0 0 0 127 0" result="hardAlpha"/>
<feOffset dy="7"/>
<feGaussianBlur stdDeviation="2"/>
<feComposite in2="hardAlpha" operator="out"/>
<feColorMatrix type="matrix" values="0 0 0 0 0 0 0 0 0 0 0 0 0 0 0 0 0 0 0.15 0"/>
<feBlend mode="normal" in2="BackgroundImageFix" result="effect1_dropShadow_1210_245"/>
<feBlend mode="normal" in="SourceGraphic" in2="effect1_dropShadow_1210_245" result="shape"/>
</filter>
<filter id="filter1_d_1210_245" x="87.005" y="48" width="57.5872" height="61.4339" filterUnits="userSpaceOnUse" color-interpolation-filters="sRGB">
<feFlood flood-opacity="0" result="BackgroundImageFix"/>
<feColorMatrix in="SourceAlpha" type="matrix" values="0 0 0 0 0 0 0 0 0 0 0 0 0 0 0 0 0 0 127 0" result="hardAlpha"/>
<feOffset dy="7"/>
<feGaussianBlur stdDeviation="2"/>
<feComposite in2="hardAlpha" operator="out"/>
<feColorMatrix type="matrix" values="0 0 0 0 0 0 0 0 0 0 0 0 0 0 0 0 0 0 0.15 0"/>
<feBlend mode="normal" in2="BackgroundImageFix" result="effect1_dropShadow_1210_245"/>
<feBlend mode="normal" in="SourceGraphic" in2="effect1_dropShadow_1210_245" result="shape"/>
</filter>
<clipPath id="clip0_1210_245">
<rect width="163" height="191" fill="white"/>
</clipPath>
</defs>
</svg>
