<svg xmlns="http://www.w3.org/2000/svg" width="339" height="76" fill="none" viewBox="0 0 339 76">
  <mask id="a" width="339" height="76" x="0" y="0" maskUnits="userSpaceOnUse" style="mask-type:alpha">
    <path fill="#C4C4C4" d="M0 0h339v76H0z"/>
  </mask>
  <g mask="url(#a)">
    <path fill="url(#paint0_linear_548_116)" fill-rule="evenodd" d="M46.398 78.157c-15.983-3.43-.761-20.988 6.108-10.215 2.969 4.653 5.392 8.277 7.47 11.15h10.546c-2.908-2.893-5.26-6.053-7.718-9.355-5.15-6.92-10.764-14.462-22.934-21.474-14.64-8.431-3.684-18.003 2.76-14.523 4.584 2.476 5.829 5.227 7.605 9.153 2.6 5.75 6.342 14.019 23.381 27.636 14.02 11.202 17.163 2.003 18.604-4.704 1.436-6.702 2.732-7.028 5.017-4.172 2.283 2.857 10.264 8.215 20.786 6.306 10.526-1.911 14.531-20.952 15.433-28.812.903-7.855 5.483-6.462 6.065-1.65 2.661 22.176 13.118 22.318 26.14 22.495 4.261.058 8.797.12 13.425.959 4.037.732 7.875 2.085 11.657 3.419 14.534 5.124 28.228 9.951 49.15-21.918 7.038-10.718 13.171 4.068 7.845 9.314-2.478 2.446-4.773 3.33-6.933 4.161-2.479.955-4.779 1.84-6.971 4.94-3.159 4.463-5.84 11.886-4.028 18.225h13.989a86.4 86.4 0 003.362-5.745c1.713-3.217 2.653-2.4 4.316-.957 3.258 2.83 9.29 8.07 29.344-9.917 8.505-7.631 10.133-11.465 11.284-14.174.878-2.068 1.478-3.482 4.645-5.43 7.316-4.494 18.049 3.736 8.245 10.403-13.899 9.456-24.97 18.031-33.952 25.82h971.511v402.387H-911V79.092H49.286a16.566 16.566 0 00-2.889-.935zm224.555-24.81c-2.288-2.568-5.952-1.977-7.264-.329-2.091 2.629-2.689 5.752-.719 6.987 1.961 1.237 5.352 1.593 7.471-.372 1.477-1.372 2.798-3.717.512-6.285zm44.216-27.972c-3.767 6.09-1.952 9.478-.467 11.297 3.393 4.152 6.773 1.894 11.058-.97 1.341-.895 2.77-1.85 4.315-2.686 5.034-2.72 1.847-9.698-.966-11.615-2.821-1.911-11.19-.485-13.94 3.974zM28.607 13.25c-4.436-3.604-9.07-4.44-11.456-1.348-2.384 3.09-2.392 5.99 1.634 11.02 1.562 1.957 8.609 4.106 11.43 1.645 1.61-1.399 2.83-7.717-1.608-11.317zM252.379 24.47c-2.091 2.631-2.083 5.067-.72 6.992 1.928 2.717 3.353 1.973 5.256.98.811-.423 1.71-.892 2.771-1.156 1.917-.478 4.329-4.188 2.039-6.76-2.282-2.567-8.037-1.703-9.346-.056z" clip-rule="evenodd"/>
  </g>
  <defs>
    <linearGradient id="paint0_linear_548_116" x1="1314.78" x2="-1226.77" y1="1.434" y2="-368.183" gradientUnits="userSpaceOnUse">
      <stop stop-color="#30B036"/>
      <stop offset=".063" stop-color="#40BE46"/>
      <stop offset=".837" stop-color="#40BE46"/>
      <stop offset="1" stop-color="#30B036"/>
    </linearGradient>
  </defs>
</svg>
