<svg width="357" height="317" viewBox="0 0 357 317" fill="none" xmlns="http://www.w3.org/2000/svg">
<path d="M179.026 114.633V55.3523L126.236 82.6212V133.161L179.026 114.633Z" fill="#40BE46"/>
<path d="M179.026 203.553V137.159L126.236 152.192V209.147L179.026 203.553Z" fill="#40BE46"/>
<path d="M179.026 292.474V226.08L126.236 228.177V285.132L179.026 292.474Z" fill="#40BE46"/>
<path d="M0.5 148.134L24.3977 135.79V168.376L0.5 176.764V148.134ZM0.5 188.518L24.3977 181.712V219.435L0.5 221.967V188.518ZM24.3977 270.464L0.5 267.141V233.674L24.3977 232.724V270.464ZM70.4508 112.001L114.262 89.3696L114.347 136.805L70.4508 152.212V112.001ZM70.4508 214.555V168.598L114.261 156.122V209.913L70.4508 214.555ZM70.4508 230.894L114.261 229.153V282.962L70.4508 276.869V230.894ZM61.1515 231.264V275.576L31.3258 271.428V232.449L61.1515 231.264ZM31.3258 165.945V132.211L61.1515 116.804V155.476L31.3258 165.945ZM31.3258 218.701V179.74L61.1515 171.246V215.54L31.3258 218.701Z" stroke="#A5A5A5"/>
<path d="M356.368 148.133L332.635 135.792V168.377L356.368 176.763V148.133ZM356.368 188.517L332.635 181.713V219.435L356.368 221.966V188.517ZM332.635 270.463L356.368 267.141V233.673L332.635 232.724V270.463ZM286.88 111.999L243.366 89.3719L243.282 136.806L286.88 152.21V111.999ZM286.88 214.554V168.597L243.367 156.123V209.913L286.88 214.554ZM286.88 230.894L243.367 229.153V282.961L286.88 276.869V230.894ZM296.125 231.264V275.575L325.746 271.428V232.449L296.125 231.264ZM325.746 165.943V132.21L296.125 116.806V155.477L325.746 165.943ZM325.746 218.7V179.739L296.125 171.247V215.54L325.746 218.7Z" stroke="#A5A5A5"/>
<path d="M179.027 114.633V55.3523L231.467 82.6212V133.161L179.027 114.633Z" fill="#339838"/>
<path d="M179.027 203.553V137.159L231.467 152.192V209.147L179.027 203.553Z" fill="#339838"/>
<path d="M179.027 292.474V226.08L231.467 228.177V285.132L179.027 292.474Z" fill="#339838"/>
<path d="M239.492 2L119.746 70.7652V293.659L239.492 315V2Z" stroke="white" stroke-width="2" stroke-dasharray="2 2"/>
</svg>
