<svg width="163" height="192" viewBox="0 0 163 192" fill="none" xmlns="http://www.w3.org/2000/svg">
<g clip-path="url(#clip0_1676_23)">
<path d="M76.0921 115.408L162.79 58.2132L156.899 130.714L76.0921 191.323V115.408Z" fill="#309044"/>
<path d="M76.0921 115.408L0.839188 50.8677L5.34987 129.436L76.0921 191.323V115.408Z" fill="#3AA548"/>
<path d="M0.839188 50.8677L76.0921 115.408L162.79 58.2132L85.29 0.322693L0.839188 50.8677Z" fill="#5DBB5A"/>
</g>
<path d="M137.951 133.713L103.42 159.144L103.165 155.207L137.696 129.787L137.951 133.724V133.713Z" fill="white"/>
<path d="M114.988 116.483C114.803 113.666 116.32 110.159 118.381 108.643C120.442 107.127 122.249 108.19 122.434 111.007C122.619 113.824 121.102 117.331 119.041 118.847C116.98 120.363 115.174 119.3 114.988 116.494V116.483ZM135.508 100.101C135.427 100.022 133.389 98.1329 130.158 97.0468C128.386 96.4133 126.487 96.1983 124.495 96.3907C122.121 96.6509 119.805 97.6012 117.605 99.2189C115.405 100.837 113.182 103.235 110.993 106.346C109.175 108.959 107.473 111.822 105.933 114.888C103.142 120.397 101.533 124.99 101.463 125.182C101.035 126.404 101.116 127.649 101.66 128.158C101.741 128.237 103.779 130.126 107.01 131.212C108.781 131.835 110.681 132.061 112.661 131.868C115.035 131.608 117.362 130.658 119.562 129.04C120.373 128.441 121.183 127.739 121.971 126.959L121.357 123.666C120.686 124.323 120.002 124.911 119.319 125.42C117.443 126.8 115.451 127.615 113.379 127.841C111.584 128.011 109.87 127.818 108.26 127.241C106.732 126.721 105.284 125.952 103.93 124.922C105.03 122.105 106.245 119.356 107.577 116.732C108.967 113.96 110.507 111.358 112.151 108.993C114.062 106.29 115.973 104.231 117.848 102.85C119.724 101.47 121.716 100.656 123.789 100.429C125.584 100.26 127.298 100.463 128.907 101.029C130.436 101.549 131.883 102.319 133.238 103.348C132.138 106.176 130.922 108.914 129.59 111.539C128.78 113.134 127.935 114.684 127.043 116.166L126.464 117.139L125.283 119.096L123.488 116.641C124.518 114.209 125.016 111.528 124.866 109.208C124.553 104.4 121.531 102.522 118.138 105.023C114.745 107.523 112.232 113.473 112.545 118.27C112.858 123.067 115.88 124.956 119.273 122.456C120.072 121.868 120.836 121.064 121.554 120.092L124.692 124.379L124.854 124.096L124.935 124.232C125.387 123.497 126.904 120.985 127.853 119.401L128.432 118.429C129.405 116.811 130.343 115.114 131.223 113.372C134.014 107.862 135.635 103.269 135.705 103.077C136.133 101.855 136.052 100.61 135.508 100.101Z" fill="white"/>
<defs>
<clipPath id="clip0_1676_23">
<rect width="161.951" height="191" fill="white" transform="translate(0.839188 0.322693)"/>
</clipPath>
</defs>
</svg>
