<svg width="165" height="160" viewBox="0 0 165 160" fill="none" xmlns="http://www.w3.org/2000/svg">
<path d="M101.366 132.973L146.909 90.1564L106 25.5L101.366 132.973Z" fill="#CCCCCC"/>
<path d="M101.366 132.973L146.909 90.1562L101.366 104.416L101.366 132.973Z" fill="#8E8E8E"/>
<g filter="url(#filter0_d_402_1160)">
<path d="M38 85.1066L74.6485 74.1548L111.272 41.3146L72.5889 54.9326L38 85.1066Z" fill="#646464"/>
<path d="M110.957 40.9117L72.6343 76.2381L102.458 122.12L140.279 87.2826L110.957 40.9117Z" fill="#151515"/>
</g>
<path d="M110.733 76.5834C110.951 76.0042 110.182 74.8361 109.015 73.9743C108.018 73.2388 107.055 72.9636 106.658 73.2577C106.589 73.3089 106.537 73.3765 106.505 73.4615C106.498 73.4822 106.491 73.5035 106.486 73.5257C106.249 74.0011 106.198 74.8894 106.394 75.9053C106.684 77.4173 107.408 78.6381 108.011 78.6326C108.104 78.6314 108.189 78.6019 108.264 78.5453C108.626 78.2779 108.78 77.4223 108.65 76.3585C109.485 76.8732 110.24 77.0388 110.581 76.7872C110.649 76.7365 110.701 76.6684 110.733 76.5834ZM103.259 76.535C103.325 76.487 103.39 76.4344 103.455 76.3791C105.01 75.0409 105.183 73.1879 104.188 71.5674C103.193 69.947 102.077 69.1823 99.8506 70.5108C99.7065 70.597 99.5735 70.685 99.4517 70.7754C97.6914 72.0792 98.1863 73.8062 99.1174 75.3225C100.071 76.875 101.752 77.6509 103.259 76.535ZM110.8 70.8706C112.307 69.7552 112.282 67.7523 111.328 66.1993C110.397 64.6836 109.125 63.5317 107.364 64.836C107.242 64.9259 107.117 65.028 106.991 65.1427C105.036 66.9114 105.263 68.3334 106.258 69.9543C107.253 71.5748 108.883 72.0925 110.595 71.011C110.667 70.966 110.735 70.9191 110.8 70.8706ZM113.048 65.4924C113.804 65.5822 114.622 66.15 115.188 67.0704C116.05 68.4756 115.999 70.1703 115.074 70.856C114.934 70.96 114.781 71.0343 114.621 71.0814C114.183 71.4734 113.45 72.6891 115.061 75.9741C115.291 76.4417 115.326 76.7988 115.208 77.0649C115.184 77.1203 115.152 77.1716 115.115 77.2188C114.361 78.8835 112.283 80.5847 112.173 80.6743L111.371 81.2816C111.256 81.365 109.07 82.9483 107.382 83.0917C107.328 83.112 107.273 83.1244 107.218 83.1294C106.948 83.1498 106.66 82.9795 106.351 82.5713C104.181 79.6991 102.88 79.9903 102.385 80.2889C102.286 80.4351 102.166 80.5623 102.025 80.6663C101.099 81.3514 99.6493 80.7677 98.7866 79.3624C98.2214 78.442 98.0475 77.3972 98.2556 76.593C98.3126 75.0628 96.99 73.9727 96.1411 73.2593C95.1554 72.4694 94.27 71.4742 93.541 70.2878C90.3622 65.1118 91.372 58.2602 95.7967 54.9844C100.221 51.7081 106.384 53.2475 109.562 58.4231C110.426 59.8288 110.98 61.3586 111.241 62.9061C111.539 63.9331 112.023 65.0898 113.048 65.4924Z" fill="url(#paint0_linear_402_1160)"/>
<path d="M100.422 86.406C100.604 86.2709 100.847 86.1975 101.151 86.2064C101.854 86.2273 102.386 86.6483 103.023 86.9209C104.443 87.5277 105.233 87.4094 106.871 87.2357C107.779 87.1393 114.422 86.2377 114.683 86.0448C114.943 85.845 118.166 79.4372 118.611 78.5366C119.274 77.2006 119.787 76.2293 119.786 74.5016C119.786 73.732 119.638 73.0529 119.903 72.2829C119.994 72.0135 120.135 71.8216 120.304 71.6968C120.672 71.4246 121.172 71.4719 121.58 71.7327C122.371 72.2384 122.499 72.9843 123.457 72.917C123.92 72.8845 123.967 72.7988 124.42 73.1961C125.526 74.1667 125.79 75.3936 125.206 76.5292C124.873 77.176 124.446 77.5503 123.894 77.9593C123.795 78.0325 123.692 78.1064 123.586 78.1836C123.562 78.2008 123.538 78.218 123.515 78.2357C122.233 79.1846 121.628 80.3191 120.834 81.6407C120.473 82.2427 118.832 84.9458 118.752 85.3414C119.058 85.4032 122.123 84.7486 122.616 84.6281C123.679 84.3665 124.44 84.1033 125.192 83.5461C125.577 83.2617 125.959 82.9002 126.377 82.4232C126.727 82.0239 127.066 81.669 127.406 81.4168C128.188 80.8374 128.986 80.7994 129.986 82.0035C130.918 83.1263 129.995 83.6704 130.672 85.5446C131.111 86.7572 130.948 87.9209 130.24 88.4453C130.16 88.5049 130.072 88.5561 129.978 88.5983C129.4 88.8568 128.548 88.4832 128.072 88.3222C126.642 87.8399 125.866 87.8774 124.264 88.063C123.383 88.1653 116.931 88.9875 116.593 89.238C116.279 89.5245 113.142 95.8202 112.731 96.6827C111.929 98.3658 111.734 98.9586 111.567 100.675C111.514 101.22 111.5 102.232 111.025 102.672C110.995 102.7 110.963 102.726 110.93 102.75C110.433 103.118 109.644 103.078 109.118 102.82C108.458 102.497 108.036 101.736 107.295 101.389C106.753 101.134 105.922 101.085 105.506 100.059C104.916 98.6034 105.247 97.8105 106.012 97.2445C106.362 96.9848 106.804 96.773 107.29 96.5666C107.772 96.362 108.197 96.1182 108.578 95.8358C109.382 95.2407 109.991 94.4747 110.536 93.5444C110.842 93.0214 112.516 90.2337 112.563 89.9247C112.194 89.8569 109.217 90.5375 108.66 90.6599C107.265 90.9676 106.058 91.1631 104.774 92.1146C104.752 92.1302 104.731 92.1464 104.71 92.1626C104.582 92.2601 104.459 92.3531 104.341 92.4407C103.8 92.8412 103.333 93.1293 102.661 93.2035C101.437 93.3391 100.552 92.5803 100.168 91.0839C100.022 90.51 100.142 90.4972 100.32 90.0072C100.685 88.9963 100.146 88.7393 100.016 87.703C99.945 87.1459 100.074 86.664 100.422 86.406Z" fill="url(#paint1_linear_402_1160)"/>
<path d="M106.557 25.3266L61.0126 68.143L101.847 132.311L106.557 25.3266Z" fill="#363636"/>
<path d="M15.4388 82.4219L61.0143 68.1432L101.849 132.311L53.4945 140.044L15.4388 82.4219Z" fill="black"/>
<path d="M15.437 82.4214L61.0124 68.1427L106.556 25.3262L58.4511 43.0812L15.437 82.4214Z" fill="#646464"/>
<defs>
<filter id="filter0_d_402_1160" x="34" y="40.9117" width="110.279" height="89.2085" filterUnits="userSpaceOnUse" color-interpolation-filters="sRGB">
<feFlood flood-opacity="0" result="BackgroundImageFix"/>
<feColorMatrix in="SourceAlpha" type="matrix" values="0 0 0 0 0 0 0 0 0 0 0 0 0 0 0 0 0 0 127 0" result="hardAlpha"/>
<feOffset dy="4"/>
<feGaussianBlur stdDeviation="2"/>
<feComposite in2="hardAlpha" operator="out"/>
<feColorMatrix type="matrix" values="0 0 0 0 0 0 0 0 0 0 0 0 0 0 0 0 0 0 0.25 0"/>
<feBlend mode="normal" in2="BackgroundImageFix" result="effect1_dropShadow_402_1160"/>
<feBlend mode="normal" in="SourceGraphic" in2="effect1_dropShadow_402_1160" result="shape"/>
</filter>
<linearGradient id="paint0_linear_402_1160" x1="92" y1="85.5" x2="123.547" y2="93.2135" gradientUnits="userSpaceOnUse">
<stop stop-color="#FF9900" stop-opacity="0"/>
<stop offset="1" stop-color="#FF9900"/>
</linearGradient>
<linearGradient id="paint1_linear_402_1160" x1="92" y1="85.5" x2="123.547" y2="93.2135" gradientUnits="userSpaceOnUse">
<stop stop-color="#FF9900" stop-opacity="0"/>
<stop offset="1" stop-color="#FF9900"/>
</linearGradient>
</defs>
</svg>
