<svg width="113" height="165" viewBox="0 0 113 165" fill="none" xmlns="http://www.w3.org/2000/svg">
<g clip-path="url(#clip0_969_120)">
<path d="M0.60796 64.4246L62.7884 34.4418L62.1804 90.3426L0 120.333L0.60796 64.4246Z" fill="#2C783B"/>
<path d="M62.7884 34.4418L106.159 78.2002L105.551 134.101L62.1804 90.3426L62.7884 34.4418Z" fill="#236030"/>
<path d="M43.9782 108.183L43.3703 164.091L0 120.333L0.60796 64.4246L43.9782 108.183Z" fill="#3AA548"/>
<path d="M97.867 29.6676H94.2632L90.9744 28.1674C87.3046 43.3176 84.3967 55.2531 82.104 64.6241L92.7103 57.618C94.146 49.7768 95.8527 40.5315 97.8597 29.6602L97.867 29.6676Z" fill="#F8B736"/>
<path d="M76.3613 101.702L76.603 101.761L80.954 102.707L81.1883 102.758C83.3931 103.15 84.3893 102.123 85.3269 97.7256C86.074 94.23 87.9492 83.6248 92.7103 57.6328L82.104 64.6389C77.3794 83.9426 75.2919 92.3454 74.6326 95.4051C73.6951 99.7949 74.1785 101.155 76.354 101.702H76.3613Z" fill="#F8B736"/>
<path d="M112.524 27.1327L109.125 26.3937C108.803 26.3198 108.481 26.5341 108.415 26.8593L108.334 27.2362C105.822 28.9581 101.852 26.5932 101.412 25.4182C101.17 24.6717 100.548 24.0657 99.7275 23.8883L91.6409 22.1294C91.4578 22.0925 91.2673 22.0777 91.0915 22.0777C87.6782 21.6417 82.9976 22.2477 76.94 29.5272C75.6142 31.1531 77.189 31.2196 78.6467 30.1628C80.097 29.106 88.7696 24.6791 88.0224 28.1674L87.6782 29.7785C87.4145 31.0201 88.1982 32.2395 89.4288 32.5055L97.5154 34.2644C98.6801 34.5157 99.8227 33.821 100.167 32.6977C101.559 31.9882 105.419 31.8108 106.855 34.161L106.803 34.4049C106.73 34.73 106.942 35.0552 107.265 35.1217L110.663 35.8608C110.986 35.9347 111.308 35.7203 111.374 35.3952L112.985 27.8422C113.059 27.517 112.846 27.1918 112.524 27.1253V27.1327Z" fill="#505050"/>
<path d="M47.3549 92.3897C47.0839 95.671 44.2272 98.1172 40.975 97.8438C37.7228 97.5704 35.2982 94.6881 35.5693 91.4068L40.8798 26.8666C41.1508 23.5852 44.0075 21.139 47.2597 21.4125C50.5119 21.6859 52.9364 24.5682 52.6654 27.8495L47.3549 92.3897Z" fill="#AEAEAE"/>
<path d="M39.3562 0.0912527L38.3161 12.7288C38.3161 12.7288 38.0231 16.1062 41.7368 16.4166L61.9899 18.109C61.9899 18.109 53.1342 22.0998 52.2625 32.742L40.4769 31.7517C40.4769 31.7517 39.1584 23.4227 36.4189 21.8338C33.6795 20.2448 21.7766 11.3542 39.3562 0.0838623V0.0912527Z" fill="#AEAEAE"/>
<path d="M47.6333 16.9118L48.8346 2.3158C48.8346 2.3158 57.1629 10.4674 56.5696 17.6582L47.6333 16.9118Z" fill="#525252"/>
<path d="M43.7024 21.1965L43.3344 25.6745C43.2997 26.0975 43.6114 26.4689 44.0307 26.5039L50.7172 27.0633C51.1365 27.0984 51.5046 26.7839 51.5394 26.3609L51.9074 21.8829C51.9421 21.4599 51.6304 21.0885 51.2112 21.0534L44.5246 20.494C44.1053 20.4589 43.7372 20.7734 43.7024 21.1965Z" fill="#525252"/>
<path d="M44.4909 25.5807C44.4763 25.7581 44.3224 25.8911 44.1466 25.8763C43.9708 25.8615 43.839 25.7063 43.8537 25.5289L44.1906 21.4347C44.2052 21.2573 44.3591 21.1243 44.5349 21.1391C44.7107 21.1538 44.8425 21.309 44.8279 21.4864L44.4909 25.5807Z" fill="#AEAEAE"/>
<path d="M45.4139 25.6545C45.3992 25.8319 45.2454 25.9649 45.0696 25.9502C44.8938 25.9354 44.762 25.7802 44.7766 25.6028L45.1136 21.5085C45.1282 21.3312 45.282 21.1981 45.4578 21.2129C45.6336 21.2277 45.7655 21.3829 45.7508 21.5603L45.4139 25.6545Z" fill="#AEAEAE"/>
<path d="M46.3294 25.7358C46.3148 25.9132 46.1609 26.0462 45.9851 26.0314C45.8093 26.0167 45.6775 25.8615 45.6922 25.6841L46.0291 21.5898C46.0437 21.4125 46.1976 21.2794 46.3734 21.2942C46.5492 21.309 46.681 21.4642 46.6664 21.6416L46.3294 25.7358Z" fill="#AEAEAE"/>
<path d="M47.2451 25.8098C47.2304 25.9872 47.0766 26.1202 46.9008 26.1054C46.725 26.0906 46.5932 25.9354 46.6078 25.7581L46.9447 21.6638C46.9594 21.4864 47.1132 21.3534 47.289 21.3682C47.4648 21.383 47.5967 21.5382 47.582 21.7155L47.2451 25.8098Z" fill="#AEAEAE"/>
<path d="M48.1679 25.8911C48.1533 26.0685 47.9994 26.2015 47.8236 26.1867C47.6479 26.1719 47.516 26.0167 47.5307 25.8394L47.8676 21.7451C47.8822 21.5677 48.0361 21.4347 48.2119 21.4495C48.3877 21.4643 48.5195 21.6195 48.5049 21.7968L48.1679 25.8911Z" fill="#AEAEAE"/>
<path d="M49.0836 25.965C49.0689 26.1423 48.9151 26.2754 48.7393 26.2606C48.5635 26.2458 48.4317 26.0906 48.4463 25.9132L48.7832 21.819C48.7979 21.6416 48.9517 21.5086 49.1275 21.5233C49.3033 21.5381 49.4352 21.6933 49.4205 21.8707L49.0836 25.965Z" fill="#AEAEAE"/>
<path d="M50.0065 26.0463C49.9919 26.2236 49.8381 26.3567 49.6623 26.3419C49.4865 26.3271 49.3546 26.1719 49.3693 25.9945L49.7062 21.9003C49.7209 21.7229 49.8747 21.5899 50.0505 21.6046C50.2263 21.6194 50.3581 21.7746 50.3435 21.952L50.0065 26.0463Z" fill="#AEAEAE"/>
<path d="M50.9221 26.1202C50.9074 26.2976 50.7536 26.4306 50.5778 26.4158C50.402 26.4011 50.2702 26.2459 50.2848 26.0685L50.6217 21.9742C50.6364 21.7969 50.7902 21.6638 50.966 21.6786C51.1418 21.6934 51.2737 21.8486 51.259 22.026L50.9221 26.1202Z" fill="#AEAEAE"/>
<path d="M45.3187 91.5916C45.1429 93.7348 43.275 95.3311 41.1508 95.1537C39.0266 94.9764 37.4445 93.0918 37.6203 90.9486L41.8833 39.0755C42.0591 36.9323 43.9269 35.336 46.0511 35.5133C48.1753 35.6907 49.7575 37.5753 49.5817 39.7185L45.3187 91.5916Z" fill="#D3D3D3"/>
<path d="M44.381 91.4807C44.2492 93.1066 42.8355 94.3112 41.224 94.1782C39.6126 94.0452 38.4186 92.6188 38.5505 90.9929C38.6823 89.367 40.096 88.1624 41.7075 88.2954C43.3189 88.4285 44.5129 89.8548 44.381 91.4807Z" fill="white"/>
<path d="M62.1989 57.4166L60.6257 60.655L63.5724 62.1121L65.1455 58.8737L62.1989 57.4166Z" fill="#A2A2A1"/>
<path d="M68.0864 57.7792L64.8328 58.2096L65.2975 61.7855L68.5511 61.3551L68.0864 57.7792Z" fill="#A2A2A1"/>
<path d="M65.4839 52.5778L66.1285 48.6091C66.1798 48.2766 66.4801 48.0401 66.8097 48.0622L67.447 44.1453L66.8097 44.0419L63.2279 49.6216L62.1951 55.9847L65.4326 56.5242L65.9527 53.3094C65.6304 53.2281 65.4253 52.9103 65.4766 52.5704L65.4839 52.5778Z" fill="#A2A2A1"/>
<path d="M66.6412 52.7699L67.2858 48.8013C67.3371 48.4687 67.132 48.1509 66.8097 48.0696L67.4469 44.1527L68.0842 44.2562L69.7103 50.7006L68.6775 57.0637L65.4399 56.5242L65.96 53.3094C66.2896 53.3316 66.5899 53.1025 66.6412 52.7625V52.7699Z" fill="#C4C4C4"/>
<path d="M68.6556 57.1819C68.3626 58.9852 66.6705 60.212 64.8833 59.9164C63.096 59.6207 61.8801 57.9136 62.1731 56.1103C62.4661 54.3071 64.1581 53.0803 65.9454 53.3759C67.7326 53.6715 68.9485 55.3787 68.6556 57.1819Z" fill="#C4C4C4"/>
<path d="M63.4256 64.4689C58.4447 72.8126 57.0969 77.8085 58.1004 85.5315C58.474 88.3546 57.9027 93.2914 54.9508 90.6456C51.9915 87.9999 52.7094 75.584 55.8517 69.753C59.0014 63.922 57.346 62.3848 57.0383 61.7344C56.7307 61.0841 56.7234 60.3672 58.3495 60.6333C59.6826 60.855 60.7374 59.8277 61.1695 59C63.5721 60.3007 64.4144 60.9732 64.4144 60.9732L63.4329 64.4689H63.4256Z" fill="#F8B736"/>
<path d="M64.6855 64.6758C66.7584 74.1946 66.4581 79.3605 63.0594 86.3444C61.8142 88.894 60.7814 93.7643 64.4218 92.2049C68.0622 90.653 71.3218 78.6584 70.1864 72.1179C69.0511 65.5774 71.102 64.6536 71.6075 64.1363C72.1055 63.6189 72.3399 62.939 70.7138 62.673C69.3807 62.4513 68.7068 61.1432 68.5603 60.2194C65.8721 60.6702 64.8613 61.0471 64.8613 61.0471L64.6855 64.6758Z" fill="#F8B736"/>
<path d="M66.8609 56.879C66.7291 57.6846 65.9746 58.2315 65.1762 58.0984C64.3778 57.9654 63.8358 57.2042 63.9676 56.3986C64.0995 55.5931 64.8539 55.0462 65.6523 55.1792C66.4507 55.3123 66.9928 56.0735 66.8609 56.879Z" fill="#A2A2A1"/>
<path d="M26.2655 42.5965L19.9592 43.2866L23.0813 72.3305L29.3876 71.6404L26.2655 42.5965Z" fill="#C4C4C4"/>
<path d="M19.2203 36.452L19.8429 42.2387L24.7359 41.6992L23.791 32.912L19.2203 36.452Z" fill="#C4C4C4"/>
<path d="M24.7359 41.6992L26.1496 41.544L25.1168 31.8848L23.791 32.912L24.7359 41.6992Z" fill="#EAEAEA"/>
<path d="M25.0803 35.2695L20.1506 39.0017L20.0261 38.8391L24.9557 35.1069L25.0803 35.2695Z" fill="#E2E2E2"/>
<path d="M25.4391 38.5952L20.5022 42.3273L20.385 42.1648L25.3146 38.4326L25.4391 38.5952Z" fill="#E2E2E2"/>
<path d="M25.7907 41.9209L20.8611 45.653L20.7439 45.4904L25.6735 41.7583L25.7907 41.9209Z" fill="#E2E2E2"/>
<path d="M26.1496 45.2466L21.22 48.9787L21.1028 48.8161L26.0324 45.084L26.1496 45.2466Z" fill="#E2E2E2"/>
<path d="M26.5086 48.5723L21.579 52.3044L21.4545 52.1418L26.3914 48.4097L26.5086 48.5723Z" fill="#E2E2E2"/>
<path d="M26.8675 51.8979L21.9379 55.63L21.8134 55.4674L26.743 51.7427L26.8675 51.8979Z" fill="#E2E2E2"/>
<path d="M27.2264 55.2309L22.2894 58.9557L22.1722 58.7931L27.1018 55.0684L27.2264 55.2309Z" fill="#E2E2E2"/>
<path d="M27.5779 58.5566L22.6483 62.2814L22.5311 62.1262L27.4607 58.394L27.5779 58.5566Z" fill="#E2E2E2"/>
<path d="M27.9369 61.8823L23.0073 65.6145L22.8901 65.4519L27.8197 61.7197L27.9369 61.8823Z" fill="#E2E2E2"/>
<path d="M28.2958 65.208L23.3662 68.9401L23.2417 68.7776L28.1786 65.0454L28.2958 65.208Z" fill="#E2E2E2"/>
<path d="M28.6547 68.5337L23.7251 72.2658L23.6006 72.1032L28.5302 68.3711L28.6547 68.5337Z" fill="#E2E2E2"/>
<path d="M21.3738 78.0524L35.7378 76.4783C35.3056 72.4727 31.7458 69.5831 27.7757 70.0191C23.8057 70.4551 20.9417 74.0469 21.3738 78.0524Z" fill="#F8B736"/>
<path d="M29.336 84.5116C33.2987 84.0756 36.17 80.4839 35.7379 76.4783L21.3739 78.0524C21.8061 82.0506 25.3659 84.9477 29.336 84.5116Z" fill="#646464"/>
<path d="M17.5869 42.8226L21.1321 75.8354C21.264 77.0548 22.3554 77.9417 23.564 77.8086L29.5483 77.1509C30.7569 77.0179 31.6359 75.9167 31.5041 74.6973L27.9589 41.6844C27.827 40.465 26.7356 39.5782 25.527 39.7112L19.5426 40.369C18.3267 40.502 17.4551 41.6031 17.5869 42.8226ZM24.1207 43.4951C24.4503 43.4581 24.7506 43.702 24.7872 44.0346L27.5413 69.6349C27.578 69.9674 27.3363 70.2704 27.0066 70.3074L24.5382 70.5808C24.2086 70.6178 23.9082 70.3739 23.8716 70.0413L21.1175 44.4411C21.0809 44.1085 21.3226 43.8055 21.6522 43.7685L24.1207 43.4951Z" fill="#F8B736"/>
<path d="M27.763 62.1441L22.0757 62.7664C21.7459 62.8025 21.5075 63.1015 21.5433 63.4343L22.0306 67.9675C22.0664 68.3003 22.3627 68.5408 22.6925 68.5047L28.3798 67.8823C28.7096 67.8462 28.948 67.5472 28.9122 67.2145L28.4249 62.6812C28.3891 62.3485 28.0928 62.108 27.763 62.1441Z" fill="#646464"/>
<path d="M0.60791 64.4246L106.159 78.2002L43.9782 108.183L0.60791 64.4246Z" fill="#5DBB5A"/>
<path d="M106.159 78.2003L105.551 134.101L43.3702 164.091L43.9782 108.183L106.159 78.2003Z" fill="#309044"/>
<path d="M86.8796 100.224C88.4765 99.5585 90.1026 98.6421 91.7433 97.4818L91.1134 116.15C91.0182 118.973 90.1538 122.055 88.5497 125.292C87.1433 128.115 85.173 131.101 82.6825 134.153C79.987 137.464 77.2255 140.154 75.5408 141.713C73.9147 141.536 71.2631 141.085 68.7141 139.962C66.3628 138.92 64.5389 137.516 63.2864 135.794C61.8581 133.82 61.1768 131.382 61.2721 128.558L61.902 109.89C63.5135 109.698 65.1249 109.269 66.7217 108.604C70.7357 106.934 74.2956 103.948 76.9032 101.31C79.401 101.82 82.8583 101.886 86.8723 100.224H86.8796ZM89.2456 116.926L89.7949 100.778C88.7914 101.362 87.7952 101.857 86.8137 102.263C83.4443 103.66 80.0895 104.118 76.83 103.631C73.4386 106.89 70.0252 109.247 66.6558 110.644C65.6743 111.051 64.6854 111.383 63.6893 111.627L63.1399 127.775C63.0593 130.206 63.6453 132.313 64.8905 134.035C66.0332 135.609 67.7252 136.895 69.908 137.855C71.9297 138.75 74.0173 139.201 75.6141 139.422C77.2695 137.848 79.4449 135.624 81.5838 133C83.8984 130.169 85.7223 127.413 87.0042 124.834C88.4105 122.01 89.1577 119.343 89.2456 116.911" fill="#D3D3D3"/>
<path d="M76.7568 105.907C80.0163 106.247 83.3711 105.707 86.7479 104.303C87.1141 104.155 87.4803 103.985 87.8539 103.815L87.3851 117.702C87.3192 119.742 86.6746 121.996 85.4807 124.405C84.3233 126.733 82.646 129.253 80.5071 131.877C78.8004 133.976 77.0571 135.794 75.702 137.131C74.3982 136.902 72.7355 136.496 71.124 135.779C69.1024 134.885 67.5568 133.71 66.524 132.291C65.4619 130.82 64.9565 129.039 65.0224 127.006L65.4912 113.12C65.8575 112.987 66.231 112.839 66.5899 112.691C69.9594 111.287 73.3801 109.011 76.7568 105.914V105.907Z" fill="#D3D3D3"/>
</g>
<defs>
<clipPath id="clip0_969_120">
<rect width="113" height="164" fill="white" transform="translate(0 0.0913086)"/>
</clipPath>
</defs>
</svg>
