<svg width="134" height="140" viewBox="0 0 134 140" fill="none" xmlns="http://www.w3.org/2000/svg">
<path d="M32.6208 0L69.7628 34.159L32.6208 105.422L0 65.2623L32.6208 0Z" fill="#ACADB1"/>
<path d="M32.6201 4.57764e-05L69.7621 34.1591L133 53.2132L91.3407 18.5758L32.6201 4.57764e-05Z" fill="#F4F4F4"/>
<path d="M76.5983 107.859L67.2571 113.684L32.6201 105.422L69.7621 34.159L132.646 53.2131L104.888 103.989L97.6161 99.4844L97.1491 93.3804L93.8796 99.0173L97.1491 105.422L95.8608 120.502L82.0203 117.201L82.6701 97.584L93.8796 88.2428L76.5983 96.2149V107.859Z" fill="#B9B9BB"/>
<path d="M73.3289 109.898L76.5983 107.859V96.215L79.8678 94.7067L93.8796 88.2428L82.6701 97.584L82.0203 117.201L73.3289 109.898Z" fill="#ACADB1"/>
<path d="M97.1491 93.3805L95.2808 96.6015L97.6161 99.4844L97.1491 93.3805Z" fill="#ACADB1"/>
<path d="M127.607 81.4647L98.1568 135.073L75.2532 129.64L75.2531 129.64L47.696 123.099L77.4272 66.3346L127.607 81.4647Z" stroke="#40BE46"/>
<path d="M71.9159 70.974L76.5775 62.2336L83.5699 64.5643" stroke="black"/>
<path d="M103.964 130.409L99.3026 139.15L91.7276 137.402" stroke="black"/>
<path d="M127.855 87.8723L132.516 79.1318L126.689 77.3837" stroke="black"/>
<path d="M48.0252 116.425L42.7809 125.748L48.6079 126.913" stroke="black"/>
<mask id="mask0_413_111" style="mask-type:alpha" maskUnits="userSpaceOnUse" x="51" y="68" width="74" height="65">
<path d="M97.3078 132.517L76.4209 127.491L51.1283 121.4L78.2501 68.8669L124.169 82.913L97.3078 132.517Z" fill="#B9B9BB"/>
</mask>
<g mask="url(#mask0_413_111)">
<path d="M32.6208 0L69.7628 34.159L32.6208 105.422L0 65.2623L32.6208 0Z" fill="#AC0411"/>
<path d="M76.5983 107.859L67.2571 113.684L32.6201 105.422L69.7621 34.159L132.646 53.2131L104.888 103.989L97.6161 99.4844L97.1491 93.3804L93.8796 99.0173L97.1491 105.422L95.8608 120.502L82.0203 117.201L82.6701 97.584L93.8796 88.2428L76.5983 96.2149V107.859Z" fill="#40BE46"/>
<path d="M73.3289 109.898L76.5983 107.859V96.215L79.8678 94.7067L93.8796 88.2428L82.6701 97.584L82.0203 117.201L73.3289 109.898Z" fill="#AC0411"/>
<path d="M97.1491 93.3805L95.2808 96.6015L97.6161 99.4844L97.1491 93.3805Z" fill="#AC0411"/>
</g>
</svg>
